<svg width="49.000000" height="21.000000" viewBox="0 0 49 21" fill="none" xmlns="http://www.w3.org/2000/svg" xmlns:xlink="http://www.w3.org/1999/xlink">
	<desc>
			Created with Pixso.
	</desc>
	<defs/>
	<g opacity="0.200000">
		<path id="24" d="M0.654785 5.30518Q0.103027 6.46606 0 7.84082L6.19678 7.84082C6.27686 7.20093 6.50732 6.62524 6.88867 6.11353Q7.45996 5.3186 8.60303 4.85254Q9.74609 4.35889 11.5508 4.35889Q12.9946 4.35889 13.9873 4.71533C14.6494 4.95288 15.1406 5.28198 15.4614 5.70239C15.8022 6.10449 15.9727 6.58887 15.9727 7.15527Q15.9727 7.31689 15.9487 7.47485Q15.8589 8.06714 15.4312 8.6084C15.0903 9.06519 14.499 9.56787 13.6567 10.1162C12.8345 10.6462 11.6714 11.3042 10.167 12.0901L0.481445 17.0522L0.481445 21L22.8013 21L22.8013 16.5039L10.1069 16.5039L13.1152 15.1331Q16.3335 13.7075 18.3188 12.4189Q20.3042 11.103 21.2368 9.75977C21.8584 8.84595 22.1694 7.86816 22.1694 6.82642C22.1694 5.47388 21.7383 4.28589 20.876 3.26245Q19.5825 1.72705 17.2363 0.877197Q14.9199 0 11.7915 0Q8.5127 0 5.896 0.959473Q3.30908 1.8916 1.74463 3.67358Q1.07178 4.42847 0.654785 5.30518ZM10.1069 16.5039L6.67773 16.5039L6.91846 17.957L10.1069 16.5039ZM45.3901 12.9673L45.3901 0.438721L37.5093 0.438721L24.8154 13.1592L24.8154 17.1619L39.2236 17.1619L39.2236 21L45.3901 21L45.3901 17.1619L49 17.1619L49 12.9673L45.3901 12.9673ZM39.2236 12.9673L39.2236 4.84204L41.1191 2.93335L39.2236 2.93335L39.2236 4.84204L31.1567 12.9673L29.3574 12.9673L29.3877 14.7493L31.1567 12.9673L39.2236 12.9673ZM39.2236 12.9673L39.2236 17.1619L45.3901 17.1619L45.3901 12.9673L39.2236 12.9673Z" fill="#FFFFFF" fill-opacity="1.000000" fill-rule="evenodd"/>
	</g>
</svg>
