<svg width="21.000000" height="21.000000" viewBox="0 0 21 21" fill="none" xmlns="http://www.w3.org/2000/svg" xmlns:xlink="http://www.w3.org/1999/xlink">
	<desc>
			Created with Pixso.
	</desc>
	<defs/>
	<g opacity="0.200000">
		<path id="8" d="M10.5 0C13.7056 0 16.1572 0.510254 17.855 1.53076C19.5532 2.5332 20.4023 3.93872 20.4023 5.74683C20.4023 7.35815 19.666 8.57544 18.1929 9.39893C16.7202 10.2224 14.667 10.5806 12.0332 10.4731L12.0332 9.93604C14.8579 9.72119 17.0581 10.0435 18.6348 10.9028C20.2114 11.7622 21 13.1228 21 14.9846C21 16.936 20.0991 18.4309 18.2969 19.4692C16.5122 20.4897 13.9136 21 10.5 21C7.104 21 4.50488 20.4897 2.70312 19.4692C0.900879 18.4309 0 16.936 0 14.9846C0 13.1228 0.788574 11.7622 2.36523 10.9028C3.95898 10.0256 6.16846 9.70337 8.99268 9.93604L8.99268 10.4731C6.35889 10.5806 4.29688 10.2224 2.80713 9.39893C1.33398 8.57544 0.597656 7.35815 0.597656 5.74683C0.597656 3.93872 1.44678 2.5332 3.14502 1.53076C4.84277 0.510254 7.29443 0 10.5 0ZM10.5 16.7571C12.146 16.7571 13.3936 16.5691 14.2427 16.1931C15.1089 15.7993 15.542 15.2354 15.542 14.5012C15.542 13.7493 15.1089 13.1853 14.2427 12.8096C13.3936 12.4336 12.146 12.2456 10.5 12.2456C8.854 12.2456 7.59766 12.4336 6.73145 12.8096C5.88232 13.1853 5.45801 13.7493 5.45801 14.5012C5.45801 15.2354 5.88232 15.7993 6.73145 16.1931C7.59766 16.5691 8.854 16.7571 10.5 16.7571ZM10.5 8.40527C11.4878 8.40527 12.3105 8.33374 12.9692 8.19043C13.645 8.0293 14.1558 7.79663 14.5024 7.49243C14.8662 7.17017 15.0483 6.77612 15.0483 6.31079C15.0483 5.64844 14.6582 5.13818 13.8789 4.78003C13.0991 4.42188 11.9727 4.24292 10.5 4.24292C9.04443 4.24292 7.92676 4.42188 7.14746 4.78003C6.36768 5.13818 5.97754 5.64844 5.97754 6.31079C5.97754 6.77612 6.15088 7.17017 6.49756 7.49243C6.84424 7.79663 7.35498 8.0293 8.03076 8.19043C8.70654 8.33374 9.52979 8.40527 10.5 8.40527Z" fill="#FFFFFF" fill-opacity="1.000000" fill-rule="evenodd"/>
	</g>
</svg>
