<svg width="16.000000" height="14.000000" viewBox="0 0 16 14" fill="none" xmlns="http://www.w3.org/2000/svg" xmlns:xlink="http://www.w3.org/1999/xlink">
	<defs/>
	<path id="Vector" d="M0.266113 6.37061L6.62988 0.245605C6.80127 0.0862427 7.03076 -0.00195312 7.26953 6.10352e-05C7.50781 0.00201416 7.73584 0.0940552 7.9043 0.256287C8.07275 0.418518 8.16846 0.638 8.17041 0.867371C8.17236 1.0968 8.08105 1.31787 7.91553 1.48285L3.10352 6.11426L15.0908 6.11426C15.332 6.11426 15.5635 6.20642 15.7339 6.37054C15.9043 6.53461 16 6.7572 16 6.98926C16 7.22131 15.9043 7.44385 15.7339 7.60797C15.5635 7.77203 15.332 7.86426 15.0908 7.86426L3.10352 7.86426L7.91553 12.4956C8.00195 12.5764 8.07129 12.6729 8.11914 12.7797C8.1665 12.8864 8.19189 13.0012 8.19287 13.1174C8.19385 13.2336 8.1709 13.3488 8.125 13.4564C8.07959 13.5638 8.01221 13.6616 7.92676 13.7437C7.84131 13.8259 7.73975 13.8909 7.62793 13.9348C7.51611 13.9788 7.39648 14.001 7.27588 13.9999C7.15527 13.999 7.03564 13.9748 6.9248 13.929C6.81396 13.8831 6.71387 13.8165 6.62988 13.7328L0.266113 7.60785C0.0957031 7.44379 0 7.22125 0 6.98926C0 6.7572 0.0957031 6.53473 0.266113 6.37061Z" fill="#FFFFFF" fill-opacity="1.000000" fill-rule="evenodd"/>
</svg>
