<svg width="16.000000" height="14.000000" viewBox="0 0 16 14" fill="none" xmlns="http://www.w3.org/2000/svg" xmlns:xlink="http://www.w3.org/1999/xlink">
	<desc>
			Created with Pixso.
	</desc>
	<defs/>
	<path id="Vector" d="M15.7339 6.37061L9.37012 0.245605C9.19873 0.0862427 8.96924 -0.00195312 8.73047 6.10352e-05C8.49219 0.00201416 8.26416 0.0940552 8.0957 0.256287C7.92725 0.418518 7.83154 0.638 7.82959 0.867371C7.82764 1.0968 7.91895 1.31787 8.08447 1.48285L12.8965 6.11426L0.90918 6.11426C0.667969 6.11426 0.436523 6.20642 0.266113 6.37054C0.0957031 6.53461 0 6.7572 0 6.98926C0 7.22131 0.0957031 7.44385 0.266113 7.60797C0.436523 7.77203 0.667969 7.86426 0.90918 7.86426L12.8965 7.86426L8.08447 12.4956C7.99805 12.5764 7.92871 12.6729 7.88086 12.7797C7.8335 12.8864 7.80811 13.0012 7.80713 13.1174C7.80615 13.2336 7.8291 13.3488 7.875 13.4564C7.92041 13.5638 7.98779 13.6616 8.07324 13.7437C8.15869 13.8259 8.26025 13.8909 8.37207 13.9348C8.48389 13.9788 8.60352 14.001 8.72412 13.9999C8.84473 13.999 8.96436 13.9748 9.0752 13.929C9.18604 13.8831 9.28613 13.8165 9.37012 13.7328L15.7339 7.60785C15.9043 7.44379 16 7.22125 16 6.98926C16 6.7572 15.9043 6.53473 15.7339 6.37061Z" fill="#1F1F1F" fill-opacity="1.000000" fill-rule="evenodd"/>
</svg>
