<svg width="14.000000" height="16.000000" viewBox="0 0 14 16" fill="none" xmlns="http://www.w3.org/2000/svg" xmlns:xlink="http://www.w3.org/1999/xlink">
	<desc>
			Created with Pixso.
	</desc>
	<defs/>
	<path id="Vector" d="M9.3335 1.6001L9.3335 0.799805C9.3335 0.587891 9.41504 0.384277 9.56104 0.234375C9.70703 0.0844727 9.90479 0 10.1113 0C10.3174 0 10.5151 0.0844727 10.6611 0.234375C10.8071 0.384277 10.8887 0.587891 10.8887 0.799805L10.8887 1.6001C11.7139 1.6001 12.5054 1.93701 13.0889 2.53711C13.6724 3.13721 14 3.95117 14 4.7998L14 12.7998C14 13.6489 13.6724 14.4624 13.0889 15.0625C12.5054 15.6631 11.7139 16 10.8887 16L3.11133 16C2.28613 16 1.49463 15.6631 0.911133 15.0625C0.327637 14.4624 0 13.6489 0 12.7998L0 4.7998C0 3.95117 0.327637 3.13721 0.911133 2.53711C1.49463 1.93701 2.28613 1.6001 3.11133 1.6001L3.11133 0.799805C3.11133 0.587891 3.19287 0.384277 3.33887 0.234375C3.48486 0.0844727 3.68262 0 3.88867 0C4.09521 0 4.29297 0.0844727 4.43896 0.234375C4.58496 0.384277 4.6665 0.587891 4.6665 0.799805L4.6665 1.6001L9.3335 1.6001ZM12.4443 8L1.55566 8L1.55566 12.7998C1.55566 13.2241 1.71924 13.6313 2.01123 13.9312C2.30273 14.2314 2.69873 14.3999 3.11133 14.3999L10.8887 14.3999C11.3013 14.3999 11.6973 14.2314 11.9888 13.9312C12.2808 13.6313 12.4443 13.2241 12.4443 12.7998L12.4443 8ZM10.8887 3.2002L10.8887 4C10.8887 4.2124 10.8071 4.41553 10.6611 4.56592C10.5151 4.71582 10.3174 4.7998 10.1113 4.7998C9.90479 4.7998 9.70703 4.71582 9.56104 4.56592C9.41504 4.41553 9.3335 4.2124 9.3335 4L9.3335 3.2002L4.6665 3.2002L4.6665 4C4.6665 4.2124 4.58496 4.41553 4.43896 4.56592C4.29297 4.71582 4.09521 4.7998 3.88867 4.7998C3.68262 4.7998 3.48486 4.71582 3.33887 4.56592C3.19287 4.41553 3.11133 4.2124 3.11133 4L3.11133 3.2002C2.69873 3.2002 2.30273 3.36865 2.01123 3.66846C1.71924 3.96875 1.55566 4.37549 1.55566 4.7998L1.55566 6.3999L12.4443 6.3999L12.4443 4.7998C12.4443 4.37549 12.2808 3.96875 11.9888 3.66846C11.6973 3.36865 11.3013 3.2002 10.8887 3.2002Z" fill="#1F1F1F" fill-opacity="1.000000" fill-rule="evenodd"/>
</svg>
