<svg width="29.000000" height="20.000000" viewBox="0 0 29 20" fill="none" xmlns="http://www.w3.org/2000/svg" xmlns:xlink="http://www.w3.org/1999/xlink">
	<desc>
			Created with Pixso.
	</desc>
	<defs/>
	<g opacity="0.200000">
		<path id="Vector" d="M28.5166 8C28.3354 7.6875 26.5464 6.88818 26.5464 6.88818C26.8574 6.72192 27.0703 6.6875 27.0703 6C27.0703 5.25 27.0669 5 26.5835 5L24.9438 5C24.937 4.98511 24.9297 4.96948 24.9229 4.95386C23.8647 2.5625 23.7227 1.95801 22.144 1.14429C20.0264 0.0549316 16.0562 0 14.5 0C12.9438 0 8.97363 0.0549316 6.85791 1.14429C5.27734 1.95679 5.31689 2.375 4.07861 4.95386C4.07861 4.96069 4.06592 4.97876 4.05469 5L2.41309 5C1.93311 5 1.92969 5.25 1.92969 6C1.92969 6.6875 2.14258 6.72192 2.45361 6.88818C2.45361 6.88818 0.725098 7.75 0.483398 8C0.241699 8.25 0 10 0 13C0 16 0.241699 19 0.241699 19L0.962891 19C0.962891 19.875 1.0874 20 1.4502 20L6.2832 20C6.646 20 6.7666 19.875 6.7666 19L22.2334 19C22.2334 19.875 22.354 20 22.7168 20L27.6709 20C27.9126 20 28.0332 19.8125 28.0332 19L28.7583 19C28.7583 19 29 15.9375 29 13C29 10.0625 28.6978 8.3125 28.5166 8ZM6.60107 10.8088C5.50098 10.9331 4.39502 10.9971 3.28809 11C2.0542 11 2.01172 11.0818 1.9248 10.2849C1.89209 9.92017 1.90234 9.55273 1.95557 9.19067L1.99365 9L2.1748 9C2.8999 9 3.58105 9.03198 4.8667 9.42383C5.52051 9.62671 6.13574 9.94507 6.68457 10.365C6.94775 10.5625 7.0083 10.75 7.0083 10.75L6.60107 10.8088ZM21.5337 15.3088L21.2666 16L7.7334 16C7.7334 16 7.75684 15.9619 7.43115 15.3013C7.18945 14.8125 7.4917 14.5 7.96973 14.3225C8.89502 13.9775 11.6001 13 14.5 13C17.3999 13 20.1587 13.8425 21.0552 14.3225C21.3877 14.5 21.8003 14.625 21.5337 15.3125L21.5337 15.3088ZM6.00684 6.77563C5.81152 6.78735 5.61572 6.78882 5.42041 6.78003C5.57812 6.48999 5.66602 6.16699 5.81982 5.82935C6.30322 4.76685 6.85596 3.56445 7.84033 3.05762C9.2627 2.32495 12.2104 1.99512 14.5 1.99512C16.7896 1.99512 19.7373 2.32251 21.1597 3.05762C22.144 3.56445 22.6943 4.76758 23.1802 5.82935C23.3354 6.16992 23.4219 6.49561 23.5835 6.7876C23.4629 6.79443 23.3237 6.7876 22.9922 6.77563L6.00684 6.77563ZM27.0146 10.2825C26.8853 11.0625 27.0063 11 25.7119 11C24.605 10.9971 23.499 10.9331 22.3989 10.8088C22.2266 10.7769 22.1777 10.4763 22.3154 10.365C22.8618 9.94043 23.4775 9.62158 24.1333 9.42383C25.4189 9.03198 26.1431 8.97949 26.8574 9.00562C26.9058 9.00757 26.9512 9.02783 26.9858 9.06226C27.02 9.09692 27.041 9.14355 27.0444 9.19312C27.0786 9.55688 27.0684 9.92383 27.0146 10.2849L27.0146 10.2825Z" fill="#FFFFFF" fill-opacity="1.000000" fill-rule="evenodd"/>
	</g>
</svg>
