<svg width="25.000000" height="18.000000" viewBox="0 0 25 18" fill="none" xmlns="http://www.w3.org/2000/svg" xmlns:xlink="http://www.w3.org/1999/xlink">
	<desc>
			Created with Pixso.
	</desc>
	<defs/>
	<path id="Vector" d="M24.9307 8.09985L23.7212 5.46436C23.6572 5.32593 23.5532 5.20825 23.4214 5.12549C23.2896 5.04297 23.1357 4.99902 22.9785 4.99902L20.9736 4.99902C20.7583 4.99902 20.5518 5.0813 20.3994 5.22754C20.2471 5.37402 20.1616 5.57275 20.1616 5.77979L20.1616 7.01074L19.5381 7.01074L19.5381 5.9978C19.5381 5.79077 19.4526 5.59229 19.3003 5.4458C19.1479 5.29932 18.9414 5.21704 18.7261 5.21704L16.5649 5.21704L16.5649 3.08618C16.5649 2.87915 16.4795 2.68042 16.3271 2.53418C16.1748 2.3877 15.9688 2.30542 15.7534 2.30542L11.7598 2.30542L11.7598 1.56177L15.7534 1.56177C15.9688 1.56177 16.1748 1.47949 16.3271 1.33301C16.4795 1.18652 16.5649 0.988037 16.5649 0.781006C16.5649 0.57373 16.4795 0.375244 16.3271 0.22876C16.1748 0.0822754 15.9688 0 15.7534 0L6.14307 0C5.92773 0 5.72168 0.0822754 5.56934 0.22876C5.41699 0.375244 5.33154 0.57373 5.33154 0.781006C5.33154 0.988037 5.41699 1.18652 5.56934 1.33301C5.72168 1.47949 5.92773 1.56177 6.14307 1.56177L10.1367 1.56177L10.1367 2.30542L6.14307 2.30542C5.92773 2.30542 5.72168 2.3877 5.56934 2.53418C5.41699 2.68042 5.33154 2.87915 5.33154 3.08618L5.33154 3.73535L3.55078 3.73535C3.33545 3.73535 3.12891 3.81763 2.97656 3.96411C2.82422 4.1106 2.73877 4.30908 2.73877 4.51611L2.73877 8.70654L1.62354 8.70654L1.62354 4.51611C1.62354 4.30908 1.53809 4.1106 1.38574 3.96411C1.2334 3.81763 1.02686 3.73535 0.811523 3.73535C0.59668 3.73535 0.390137 3.81763 0.237793 3.96411C0.0854492 4.1106 0 4.30908 0 4.51611L0 14.459C0 14.8904 0.363281 15.24 0.811523 15.24C1.26025 15.24 1.62354 14.8904 1.62354 14.459L1.62354 10.2683L2.73877 10.2683L2.73877 14.459C2.73877 14.6663 2.82422 14.8647 2.97656 15.0112C3.12891 15.1577 3.33545 15.24 3.55078 15.24L6.70459 15.24L9.90918 17.8181C10.0552 17.9355 10.2393 18 10.4297 18L18.7266 18C18.9414 18 19.1479 17.9177 19.3003 17.7712C19.4526 17.6248 19.5381 17.4263 19.5381 17.2192L19.5381 15.0903L20.1616 15.0903L20.1616 16.3215C20.1616 16.5286 20.2471 16.7271 20.3994 16.8735C20.5518 17.02 20.7583 17.1023 20.9736 17.1023L22.9785 17.1023C23.1357 17.1023 23.29 17.0583 23.4219 16.9756C23.5537 16.8931 23.6577 16.7754 23.7212 16.6367L24.9307 14.0015C24.9766 13.9021 25 13.7947 25 13.686L25 8.41528C25 8.30664 24.9766 8.19922 24.9307 8.09985ZM23.3765 13.5215L22.4497 15.5405L21.7852 15.5405L21.7852 14.3096C21.7852 14.1025 21.6997 13.9038 21.5474 13.7576C21.3955 13.6111 21.189 13.5288 20.9736 13.5288L18.7266 13.5288C18.5112 13.5288 18.3047 13.6111 18.1523 13.7576C18 13.9038 17.9146 14.1025 17.9146 14.3096L17.9146 16.4382L10.7246 16.4382L7.52002 13.8601C7.37402 13.7427 7.18945 13.6782 6.99902 13.6782L4.3623 13.6782L4.3623 5.29712L6.14307 5.29712C6.25 5.29712 6.35547 5.27686 6.4541 5.23755C6.55225 5.19849 6.64209 5.14087 6.71729 5.06836C6.79248 4.99585 6.85254 4.90967 6.89307 4.81494C6.93408 4.72021 6.95508 4.61865 6.95508 4.51611L6.95508 3.86719L14.9414 3.86719L14.9414 5.99805C14.9414 6.20532 15.0273 6.40381 15.1792 6.55029C15.3315 6.69678 15.5381 6.77905 15.7534 6.77905L17.9146 6.77905L17.9146 7.79175C17.9146 7.99902 18 8.19751 18.1523 8.34399C18.3047 8.49048 18.5112 8.57275 18.7266 8.57275L20.9736 8.57275C21.189 8.57275 21.3955 8.49048 21.5474 8.34399C21.6997 8.19751 21.7852 7.99902 21.7852 7.79175L21.7852 6.56079L22.4497 6.56079L23.3765 8.58008L23.3765 13.5215Z" fill="#727272" fill-opacity="1.000000" fill-rule="nonzero"/>
</svg>
