<svg width="22.000000" height="14.000000" viewBox="0 0 22 14" fill="none" xmlns="http://www.w3.org/2000/svg" xmlns:xlink="http://www.w3.org/1999/xlink">
	<desc>
			Created with Pixso.
	</desc>
	<defs/>
	<path id="Vector" d="M21.9204 7.88477C21.7554 6.1167 21.4834 5.77246 21.3809 5.64307C21.1445 5.34375 20.7671 5.14795 20.3672 4.94287C20.3447 4.93164 20.3252 4.91504 20.3101 4.89551C20.2954 4.87549 20.2856 4.85254 20.2812 4.82861C20.2773 4.80469 20.2793 4.77979 20.2871 4.75635C20.2944 4.7334 20.3076 4.71191 20.3257 4.69434C20.3994 4.62256 20.4565 4.53662 20.4922 4.44189C20.5283 4.34717 20.542 4.24658 20.5332 4.146C20.5161 3.96826 20.4292 3.80322 20.2905 3.68359C20.1519 3.56396 19.9707 3.49854 19.7837 3.5L19.0688 3.5C19.0381 3.5 19.0073 3.50195 18.9771 3.50586C18.9561 3.49707 18.9346 3.49023 18.9121 3.48535C18.4888 2.63086 17.9087 1.46094 16.707 0.889648C14.9243 0.0439453 11.6401 0 10.9985 0C10.3569 0 7.07275 0.0439453 5.29248 0.888672C4.09033 1.45947 3.51074 2.62939 3.08691 3.48389L3.0835 3.49072C3.06201 3.49365 3.0415 3.49854 3.02148 3.50586C2.99121 3.50195 2.96045 3.5 2.92969 3.5L2.21338 3.5C2.02637 3.49854 1.84521 3.56396 1.70654 3.68359C1.56738 3.80322 1.48096 3.96826 1.46387 4.146C1.45557 4.24609 1.47021 4.34668 1.50635 4.44092C1.54297 4.53516 1.6001 4.62061 1.67432 4.69189C1.69189 4.70947 1.70508 4.73047 1.71289 4.75391C1.72021 4.77734 1.72217 4.80176 1.71826 4.82617C1.71436 4.8501 1.7041 4.87305 1.68945 4.89258C1.67432 4.9126 1.65527 4.92871 1.63232 4.94043C1.23291 5.14697 0.853027 5.34229 0.619141 5.64014C0.516113 5.77148 0.244629 6.11426 0.0795898 7.88184C-0.012207 8.87695 -0.0258789 9.90674 0.0458984 10.5698C0.196777 11.9482 0.479492 12.7812 0.491699 12.8159C0.534668 12.9414 0.614746 13.0527 0.72168 13.1372C0.829102 13.2212 0.958984 13.2749 1.09668 13.291L1.09668 13.2998C1.09668 13.4858 1.17383 13.6636 1.31152 13.7949C1.44873 13.9263 1.63525 14 1.83008 14L4.39697 14C4.5918 14 4.77832 13.9263 4.91553 13.7949C5.05322 13.6636 5.13037 13.4858 5.13037 13.2998C5.52539 13.2998 5.7998 13.2324 6.09082 13.1606C6.51123 13.0527 6.94043 12.981 7.37451 12.9463C8.77295 12.8188 10.1636 12.7749 10.9985 12.7749C11.8164 12.7749 13.2686 12.8188 14.6694 12.9463C15.105 12.981 15.5361 13.0532 15.958 13.1616C16.2368 13.23 16.501 13.293 16.8672 13.2998C16.8672 13.4854 16.9448 13.6631 17.082 13.7944C17.2197 13.9258 17.4062 13.9995 17.6006 13.9995L20.168 13.9995C20.3623 13.9995 20.5488 13.9258 20.6865 13.7944C20.8242 13.6631 20.9014 13.4854 20.9014 13.2998L20.9014 13.2944C21.0391 13.2783 21.1694 13.2246 21.2769 13.1406C21.3848 13.0562 21.4648 12.9448 21.5083 12.8188C21.52 12.7842 21.8032 11.9512 21.9536 10.5732C22.0259 9.90918 22.0127 8.88135 21.9204 7.88477ZM4.4126 4.08252C4.7793 3.33838 5.19873 2.49658 5.94531 2.14209C7.02441 1.62939 9.26123 1.39844 10.9985 1.39844C12.7358 1.39844 14.9722 1.62744 16.0513 2.14209C16.7983 2.49658 17.2158 3.33887 17.5845 4.08252L17.6304 4.17725C17.6567 4.23145 17.6689 4.29102 17.6646 4.35059C17.6602 4.41016 17.6401 4.46777 17.606 4.51807C17.5718 4.56836 17.5249 4.60889 17.4692 4.63672C17.4136 4.66455 17.3516 4.67822 17.2891 4.67676C15.7656 4.6377 12.5571 4.51172 10.9985 4.51172C9.43994 4.51172 6.23096 4.64062 4.70557 4.68018C4.64307 4.68164 4.58105 4.66748 4.52539 4.64014C4.47021 4.6123 4.42285 4.57129 4.38867 4.521C4.35449 4.47119 4.33447 4.41357 4.33008 4.35352C4.32568 4.29395 4.33789 4.23438 4.36475 4.18018C4.38037 4.14795 4.39746 4.11523 4.4126 4.08252ZM4.95947 7.56592C4.1709 7.65674 3.37744 7.70117 2.58301 7.7002C2.09717 7.7002 1.59619 7.56885 1.50293 7.15576C1.43945 6.87793 1.44629 6.72168 1.48047 6.56445C1.50977 6.43115 1.55566 6.33398 1.78467 6.2998C2.38037 6.2124 2.71387 6.32227 3.68945 6.59668C4.33594 6.77832 4.80273 7.02002 5.06885 7.21191C5.20215 7.30615 5.13086 7.55322 4.95947 7.56592ZM15.1074 11.1538C14.5044 11.2192 13.2979 11.1953 11.0122 11.1953C8.72656 11.1953 7.52051 11.2192 6.91748 11.1538C6.29492 11.0874 5.50146 10.5259 6.04297 10.0254C6.40381 9.69531 7.24561 9.44873 8.36621 9.31006C9.4873 9.17139 9.96143 9.1001 11.0078 9.1001C12.0537 9.1001 12.48 9.14355 13.6489 9.31055C14.8179 9.47705 15.7012 9.72705 15.9722 10.0259C16.4663 10.561 15.7295 11.084 15.1074 11.1562L15.1074 11.1538ZM20.4937 7.15527C20.4023 7.56982 19.8979 7.69971 19.4136 7.69971C18.6045 7.69971 17.7954 7.65527 16.9917 7.56592C16.8516 7.55322 16.7861 7.31787 16.9282 7.21143C17.1899 7.01465 17.6616 6.77783 18.3076 6.59619C19.2832 6.32178 19.8457 6.21191 20.3286 6.30371C20.4468 6.32568 20.5088 6.44678 20.5161 6.52246C20.5488 6.73291 20.541 6.94775 20.4937 7.15576L20.4937 7.15527Z" fill="#FFFFFF" fill-opacity="1.000000" fill-rule="evenodd"/>
</svg>
