<svg width="14.000000" height="18.000000" viewBox="0 0 14 18" fill="none" xmlns="http://www.w3.org/2000/svg" xmlns:xlink="http://www.w3.org/1999/xlink">
	<desc>
			Created with Pixso.
	</desc>
	<defs/>
	<path id="Vector" d="M11.3457 4.17871C11.3457 6.48633 9.3999 8.35693 7 8.35693C4.6001 8.35693 2.6543 6.48633 2.6543 4.17871C2.6543 1.87061 4.6001 0 7 0C9.3999 0 11.3457 1.87061 11.3457 4.17871ZM0.234375 15.6021C0.0805664 15.4736 -0.00634766 15.2808 0.000488281 15.0879C0.100586 12.394 1.85205 10.022 4.45947 9.04492C4.61182 8.98828 4.78027 8.98584 4.93408 9.03857C6.24463 9.49512 7.75537 9.49512 9.06592 9.03857C9.21973 8.98584 9.38818 8.98828 9.54053 9.04492C12.1479 10.022 13.8994 12.394 13.9995 15.0879C14.0063 15.2808 13.9194 15.4736 13.7656 15.6021C11.8672 17.145 9.4668 18 7 18C4.5332 18 2.13281 17.145 0.234375 15.6021Z" fill="#FFFFFF" fill-opacity="1.000000" fill-rule="evenodd"/>
</svg>
