<svg width="9.000000" height="11.000000" viewBox="0 0 9 11" fill="none" xmlns="http://www.w3.org/2000/svg" xmlns:xlink="http://www.w3.org/1999/xlink">
	
	<defs>
		<linearGradient id="paint_linear_7806_419_0" x1="-0.000000" y1="7.562499" x2="8.999998" y2="2.979166" gradientUnits="userSpaceOnUse">
			<stop stop-color="#9F7437"/>
			<stop offset="1.000000" stop-color="#E3D293"/>
		</linearGradient>
	</defs>
	<path id="Vector" d="M4.5 0C3.30713 0.00146484 2.16309 0.465332 1.31934 1.29004C0.476074 2.11523 0.00146484 3.2334 0 4.3999C0 6.19043 1.3291 7.67725 2.7373 9.25049C3.18262 9.74902 3.64404 10.2642 4.05469 10.7856C4.10693 10.8525 4.17432 10.9062 4.25195 10.9434C4.3291 10.9805 4.41406 11 4.5 11C4.58594 11 4.6709 10.9805 4.74805 10.9434C4.82568 10.9062 4.89307 10.8525 4.94531 10.7856C5.35596 10.2642 5.81738 9.74902 6.2627 9.25049C7.6709 7.67725 9 6.19043 9 4.3999C8.99854 3.2334 8.52393 2.11523 7.68066 1.29004C6.83691 0.465332 5.69287 0.00146484 4.5 0ZM4.5 6.05029C4.16602 6.05029 3.83984 5.95361 3.5625 5.77197C3.28516 5.59082 3.06885 5.33301 2.94092 5.03174C2.81299 4.72998 2.77979 4.39844 2.84473 4.07812C2.91016 3.7583 3.0708 3.46436 3.30664 3.2334C3.54297 3.00244 3.84326 2.84521 4.1709 2.78174C4.49805 2.71826 4.8374 2.75098 5.146 2.87549C5.4541 3.00049 5.71777 3.21191 5.90332 3.4834C6.08838 3.75488 6.1875 4.07373 6.1875 4.3999C6.1875 4.83789 6.00977 5.25732 5.69336 5.56689C5.37695 5.87646 4.94775 6.05029 4.5 6.05029Z" fill="url(#paint_linear_7806_419_0)" fill-opacity="1.000000" fill-rule="evenodd"/>
</svg>
