<svg width="18.000000" height="24.000000" viewBox="0 0 18 24" fill="none" xmlns="http://www.w3.org/2000/svg" xmlns:xlink="http://www.w3.org/1999/xlink">
	<defs/>
	<path id="Vector" d="M0.960938 15.6503L7.22266 15.6503L5.96338 22.8235C5.9248 23.0436 5.9585 23.2708 6.05957 23.4685C6.16016 23.6663 6.32227 23.8232 6.51904 23.914C6.71582 24.0049 6.93652 24.0244 7.14551 23.9695C7.35449 23.9145 7.53955 23.7883 7.6709 23.6111L17.8003 9.95648C17.9102 9.80881 17.9775 9.63226 17.9951 9.44681C18.0132 9.26135 17.9805 9.07443 17.9014 8.9072C17.8218 8.73996 17.6992 8.59909 17.5469 8.50058C17.3945 8.40204 17.2188 8.34979 17.0391 8.3497L10.7773 8.3497L12.0366 1.17648C12.0752 0.95639 12.0415 0.729218 11.9404 0.531464C11.8398 0.33371 11.6777 0.176819 11.481 0.0859985C11.2842 -0.00485229 11.0635 -0.0243835 10.8545 0.0305481C10.6455 0.0854797 10.4604 0.21167 10.3291 0.388855L0.199707 14.0435C0.0898438 14.1912 0.0224609 14.3678 0.00488281 14.5532C-0.0131836 14.7386 0.0195312 14.9256 0.0986328 15.0928C0.178223 15.26 0.300781 15.4009 0.453125 15.4994C0.605469 15.598 0.78125 15.6502 0.960938 15.6503ZM9.43457 4.86588L8.67871 9.16888C8.65381 9.31271 8.65918 9.46057 8.69482 9.60199C8.73096 9.74338 8.79639 9.87485 8.88672 9.98712C8.97705 10.0994 9.08984 10.1897 9.21729 10.2517C9.34473 10.3136 9.48389 10.3457 9.625 10.3457L15.085 10.3457L8.56543 19.1341L9.32129 14.8311C9.34619 14.6873 9.34082 14.5394 9.30518 14.398C9.26904 14.2566 9.20361 14.1252 9.11328 14.0129C9.02295 13.9006 8.91016 13.8103 8.78271 13.7483C8.65527 13.6864 8.51611 13.6543 8.375 13.6543L2.91504 13.6543L9.43457 4.86588Z" fill="#FFFFFF" fill-opacity="1.000000" fill-rule="evenodd"/>
</svg>
