<svg width="18.000000" height="18.000000" viewBox="0 0 18 18" fill="none" xmlns="http://www.w3.org/2000/svg" xmlns:xlink="http://www.w3.org/1999/xlink">
	
	<defs/>
	<g>
		<path id="Vector" d="M0.0756836 8.91992C0.0795898 1.05566 9.62305 -2.98779 15.3901 2.58691L15.3789 2.61621C17.0698 4.30078 18 6.54248 18 8.92432C17.9971 15.7109 10.6802 19.9634 4.75146 16.7612L0 18L1.27197 13.3784C0.487305 12.0249 0.0756836 10.4917 0.0756836 8.91992ZM5.24268 15.2773C10.2129 18.1997 16.4971 14.6245 16.5015 8.8999C16.5015 6.91992 15.7261 5.05127 14.3198 3.65723C12.9126 2.25098 11.0444 1.47461 9.0542 1.47461C3.19482 1.47461 -0.358398 7.90967 2.73438 12.8335L2.91357 13.1147L2.16016 15.8481L4.97266 15.1172L5.24268 15.2773ZM13.1235 10.7866L13.1304 10.7305C13.3555 10.8315 13.5024 10.8877 13.5576 10.9893C13.6138 11.0903 13.6138 11.5293 13.4229 12.0576C13.2358 12.5864 12.3413 13.0591 11.9106 13.1274C11.5244 13.1826 11.0361 13.207 10.501 13.0366C8.51758 12.3555 7.43311 11.8652 5.39795 9.20117C4.36182 7.7417 4.05664 6.36914 5.26709 5.03857C5.54541 4.74902 5.86133 4.74316 6.29346 4.78076C6.30664 4.78076 6.3208 4.78027 6.33545 4.77979C6.46826 4.77441 6.63477 4.76807 6.79736 5.16309C6.98486 5.60254 7.43262 6.70508 7.48877 6.81787C7.54443 6.92969 7.58252 7.05322 7.50732 7.21094C7.33105 7.54443 7.14746 7.74707 7.01025 7.89844C6.82227 8.10596 6.72168 8.2168 6.84912 8.43604C6.98096 8.66113 7.42822 9.39258 8.09424 9.98877C8.94922 10.7534 9.67139 10.9897 9.89648 11.1025C10.1191 11.2036 10.2495 11.1924 10.3809 11.0459C10.5107 10.8975 10.9409 10.396 11.0889 10.1748C11.2905 9.87158 11.4561 9.95459 12.8774 10.6641C12.9556 10.7031 13.0376 10.7437 13.1235 10.7866Z" fill="#FFFFFF"/>
	</g>
</svg>
