<svg width="22.000000" height="18.000000" viewBox="0 0 22 18" fill="none" xmlns="http://www.w3.org/2000/svg" xmlns:xlink="http://www.w3.org/1999/xlink">
	<desc>
			Created with Pixso.
	</desc>
	<defs/>
	<path id="Vector" d="M3.94385 0L12.6157 0C17.79 0 22 4.03735 22 9C22 13.9626 17.79 18 12.6157 18L0.786133 18C0.392578 18 0.0737305 17.6938 0.0737305 17.3164C0.0737305 16.939 0.392578 16.6328 0.786133 16.6328L7.64893 16.6328C7.13135 16.3218 6.64648 15.9634 6.20117 15.5627L2.93457 15.5627C2.54102 15.5627 2.22168 15.2566 2.22168 14.8792C2.22168 14.5017 2.54102 14.1956 2.93457 14.1956L4.95703 14.1956C3.87061 12.7268 3.23145 10.9336 3.23145 9C3.23145 7.33813 3.7041 5.78052 4.52637 4.44287L0.712891 4.44287C0.319336 4.44287 0 4.13696 0 3.75928C0 3.38184 0.319336 3.07568 0.712891 3.07568L5.55762 3.07568C6.16406 2.41162 6.86865 1.83594 7.64893 1.36719L3.94385 1.36719C3.55029 1.36719 3.23145 1.06104 3.23145 0.683594C3.23145 0.306152 3.55029 0 3.94385 0ZM4.65674 9C4.65674 13.209 8.22705 16.6328 12.6157 16.6328C17.0044 16.6328 20.5742 13.2087 20.5742 9C20.5742 4.79126 17.0039 1.36719 12.6157 1.36719C8.22705 1.36719 4.65674 4.79126 4.65674 9ZM6.79346 9C6.79346 5.92139 9.40527 3.4165 12.6157 3.4165C15.8257 3.4165 18.4375 5.92139 18.4375 9C18.4375 10.8362 17.5088 12.4678 16.0781 13.4861C16.0649 13.4966 16.0518 13.5073 16.0376 13.5171C16.022 13.5283 16.0054 13.5386 15.9893 13.5483C15.0366 14.2 13.8721 14.5835 12.6157 14.5835C11.3594 14.5835 10.1948 14.2 9.24219 13.5483C9.22559 13.5386 9.20947 13.5283 9.19336 13.5171C9.17969 13.5073 9.1665 13.4968 9.15332 13.4861C7.72266 12.4678 6.79346 10.8359 6.79346 9ZM11.9028 6.70068L11.9028 4.83936C10.5117 5.05786 9.33838 5.9043 8.71094 7.06445L10.5566 7.63965C10.877 7.19458 11.3501 6.8584 11.9028 6.70068ZM12.6157 10.0322C13.209 10.0322 13.6919 9.56909 13.6919 9C13.6919 8.43091 13.209 7.96802 12.6157 7.96802C12.0225 7.96802 11.5396 8.43091 11.5396 9C11.5396 9.56909 12.0225 10.0322 12.6157 10.0322ZM8.21924 9C8.21924 10.1536 8.70508 11.2004 9.49023 11.9624L10.6304 10.4575C10.3066 10.0532 10.1138 9.54785 10.1138 9C10.1138 8.97974 10.1152 8.95996 10.1157 8.9397L8.26904 8.3645C8.23633 8.57178 8.21924 8.78394 8.21924 9ZM14.6011 10.4578L15.7407 11.9624C16.5264 11.2004 17.0122 10.1536 17.0122 9C17.0122 8.78735 16.9956 8.57471 16.9619 8.3645L15.1157 8.9397C15.1162 8.95996 15.1172 8.97974 15.1172 9C15.1172 9.5481 14.9243 10.0532 14.6011 10.4578ZM10.6426 12.7673C11.2363 13.0544 11.9067 13.2163 12.6157 13.2163C13.3247 13.2163 13.9951 13.0544 14.5884 12.7673L13.4482 11.2622C13.1875 11.3508 12.9077 11.3994 12.6157 11.3994C12.3237 11.3994 12.0435 11.3508 11.7832 11.2622L10.6426 12.7673ZM16.5205 7.06445C15.8931 5.9043 14.7192 5.05786 13.3286 4.83936L13.3286 4.83936L13.3286 4.83936L13.3286 6.70068C13.8809 6.8584 14.354 7.19458 14.6748 7.63965L16.5205 7.06445Z" fill="#727272" fill-opacity="1.000000" fill-rule="evenodd"/>
</svg>
