<svg width="33.000000" height="12.000000" viewBox="0 0 33 12" fill="none" xmlns="http://www.w3.org/2000/svg" xmlns:xlink="http://www.w3.org/1999/xlink">
	<desc>
			Created with Pixso.
	</desc>
	<defs/>
	<g opacity="0.600000">
		<path id="Vector" d="M0.875 9.71777C0.239258 9.68066 0.134277 8.70752 0.560547 8.36084L0.0385742 6.10938C-0.027832 5.82275 -0.00830078 5.52148 0.0952148 5.24658L0.342285 4.58887C0.433594 4.34668 0.585938 4.13428 0.783691 3.97559C0.981445 3.81689 1.2168 3.71777 1.46484 3.68848L4.66992 3.16943C4.87549 3.1543 5.07275 3.08057 5.2417 2.95654L8.54492 0.527832C9.2749 0.136719 10.0918 -0.0424805 10.9106 0.00830078L17.583 0.400879C18.3169 0.443848 19.0288 0.680176 19.6528 1.08691L23.5361 3.62256C23.5361 3.62256 29.1621 4.43408 32.1372 6.45898L32.7744 7.82812L32.7295 8.34961C33.125 8.65039 33.0869 9.47754 32.6143 9.67627L32.6089 9.74023L30.2612 9.74023L30.2612 10.0557L29.6382 10.0557L29.6382 9.72998C29.6382 8.29395 28.521 7.12549 27.147 7.12549C25.7734 7.12549 24.6562 8.29395 24.6562 9.72998L24.6562 10.0557L24.0332 10.0557L24.0332 9.74023L9.08838 9.74023L9.08838 10.0557L8.46533 10.0557L8.46533 9.72998C8.46533 8.29395 7.34814 7.12549 5.97412 7.12549C4.60059 7.12549 3.4834 8.29395 3.4834 9.72998L3.4834 10.0557L2.86035 10.0557L2.86035 9.74023L0.880371 9.74023L0.875 9.71777ZM8.81299 0.994141L6.08008 3.00342C5.90723 3.13037 5.98877 3.41455 6.2002 3.4209L13.3584 3.64209L13.2651 0.69043L10.8799 0.550293C10.7998 0.544922 10.7183 0.54248 10.6377 0.54248C10.0044 0.543457 9.37939 0.697754 8.81299 0.994141ZM22.3555 3.49121L19.3779 1.54736C18.8281 1.18848 18.2007 0.980469 17.5537 0.942383L13.8789 0.726562L14.2822 3.67041L21.8799 3.90527C21.9634 3.90771 22.0454 3.88525 22.1167 3.84033C22.188 3.79492 22.2451 3.72949 22.2817 3.65088L22.3555 3.49121ZM6.66455 4.51025L8.52979 4.55176L8.53711 4.19336L6.67188 4.15186L6.66455 4.51025ZM14.7334 4.68018L16.5986 4.72168L16.606 4.36328L14.7407 4.32178L14.7334 4.68018ZM8.13574 9.52002C8.14209 9.58887 8.14551 9.65918 8.14551 9.72998C8.14551 10.9839 7.17334 12 5.97461 12C4.77539 12 3.80322 10.9839 3.80322 9.72998C3.80371 9.66016 3.80664 9.58984 3.81299 9.52002C3.91455 8.36523 4.84326 7.46045 5.97461 7.46045C7.10596 7.46045 8.03418 8.36475 8.13574 9.52002ZM29.3179 9.72998C29.3179 9.65918 29.3145 9.58887 29.3086 9.52002C29.207 8.36475 28.2788 7.46045 27.1475 7.46045C26.0161 7.46045 25.0874 8.36523 24.9858 9.52002C24.9795 9.58984 24.9766 9.66016 24.9761 9.72998C24.9761 10.9839 25.9482 12 27.1475 12C28.3462 12 29.3179 10.9839 29.3179 9.72998ZM4.56494 9.73047C4.56494 10.543 5.19727 11.2036 5.97461 11.2036C6.75146 11.2036 7.38379 10.5425 7.38379 9.73047C7.38379 9.68604 7.38135 9.64111 7.37744 9.59277C7.31055 8.83105 6.70752 8.25684 5.97461 8.25684C5.2417 8.25684 4.63818 8.83105 4.57129 9.59326C4.56689 9.64258 4.56494 9.68701 4.56494 9.73047ZM27.1475 11.2036C26.3701 11.2036 25.7378 10.543 25.7378 9.73047C25.7378 9.68701 25.7397 9.64258 25.7441 9.59326C25.811 8.83105 26.4141 8.25684 27.1475 8.25684C27.8799 8.25684 28.4834 8.83105 28.5503 9.59277C28.5542 9.64111 28.5566 9.68604 28.5566 9.73047C28.5566 10.5425 27.9243 11.2036 27.1475 11.2036ZM27.792 9.66553C27.7939 9.68896 27.7949 9.71045 27.7949 9.72998C27.7949 9.90967 27.7266 10.082 27.6055 10.209C27.4839 10.3359 27.3193 10.4072 27.1475 10.4077C26.9756 10.4072 26.811 10.3359 26.6895 10.209C26.5679 10.082 26.4995 9.90967 26.4995 9.72998C26.4995 9.70898 26.5005 9.68799 26.5024 9.66699C26.5166 9.49854 26.5908 9.3418 26.7104 9.22803C26.8301 9.11426 26.9858 9.05176 27.1475 9.05273C27.3091 9.05176 27.4648 9.11426 27.584 9.22754C27.7036 9.34131 27.7778 9.49756 27.792 9.66553ZM6.62207 9.72998C6.62207 9.71045 6.62109 9.68896 6.61914 9.66553C6.60498 9.49756 6.53076 9.34131 6.41113 9.22754C6.29199 9.11426 6.13623 9.05176 5.97461 9.05273C5.81299 9.05176 5.65723 9.11426 5.5376 9.22803C5.41797 9.3418 5.34375 9.49854 5.32959 9.66699C5.32764 9.68799 5.32666 9.70898 5.32666 9.72998C5.32666 9.90967 5.39502 10.082 5.5166 10.209C5.63818 10.3359 5.80273 10.4072 5.97461 10.4077C6.14648 10.4072 6.31104 10.3359 6.43262 10.209C6.55371 10.082 6.62207 9.90967 6.62207 9.72998Z" fill="#000000" fill-opacity="1.000000" fill-rule="evenodd"/>
	</g>
</svg>
