<svg width="53.000000" height="10.000000" viewBox="0 0 53 10" fill="none" xmlns="http://www.w3.org/2000/svg" xmlns:xlink="http://www.w3.org/1999/xlink">
	<desc>
			Created with Pixso.
	</desc>
	<defs/>
	<g opacity="0.600000">
		<path id="Vector" d="M52.5664 6.23779L52.7134 6.23779C53.0957 6.23779 53.0957 7.73535 52.7134 7.73535L50.8828 7.73535C50.8833 7.75732 50.8848 7.7793 50.8848 7.80127L50.8848 8.06592L50.394 8.06592L50.394 7.80127C50.394 6.38232 49.3228 5.22754 48.0063 5.22754C46.6895 5.22754 45.6187 6.38232 45.6187 7.80127L45.6187 8.06592L45.1279 8.06592L45.1279 7.80127C45.1279 7.7793 45.1294 7.75732 45.1294 7.73535L8.59082 7.73535C8.59131 7.75732 8.59229 7.7793 8.59229 7.80127L8.59229 8.06592L8.10156 8.06592L8.10156 7.80127C8.10156 6.38232 7.03076 5.22754 5.71387 5.22754C4.39746 5.22754 3.32617 6.38232 3.32617 7.80127L3.32617 8.06592L2.83594 8.06592L2.83594 7.80127C2.83594 7.7793 2.83691 7.75732 2.8374 7.73535L0.286621 7.73535C-0.0957031 7.73535 -0.0957031 6.23779 0.286621 6.23779L0.36377 6.23779L0.413574 3.86035C0.41748 3.68262 0.479492 3.51221 0.588379 3.37891C0.697754 3.24561 0.847168 3.15869 1.01025 3.13281L3.42969 2.65186C3.68262 2.6123 3.93066 2.5415 4.16895 2.44189C5.17139 2.02246 7.979 0.680176 8.85693 0.213379C9.12109 0.0727539 9.41113 0 9.70508 0L40.2744 0C40.9668 0 41.6445 0.21582 42.2256 0.62207L44.209 2.08301C44.7446 2.45752 45.6724 2.67139 46.3105 2.70166C47.9443 2.78027 50.7402 2.93018 51.5806 2.93896L51.5806 2.70557C51.5269 2.64014 51.4912 2.53174 51.4912 2.4082C51.4912 2.2085 51.584 2.04639 51.6978 2.04639C51.812 2.04639 51.812 2.77002 51.6978 2.77002L51.6943 2.76953L51.6943 2.94238C52.3462 3.01904 52.521 4.99902 52.5664 6.23779ZM9.70557 0.6875C9.48877 0.687012 9.27539 0.740234 9.08105 0.842285C8.4375 1.18311 7.52637 1.88818 6.64209 2.42822L6.71777 2.49072C6.9707 2.69873 7.27979 2.81152 7.59766 2.81152L13.5562 2.81152L14.0181 0.6875L9.70557 0.6875ZM14.3745 0.6875L14.1313 2.81152L35.6445 2.81152L35.4014 0.6875L14.3745 0.6875ZM41.9585 1.22412C41.457 0.874023 40.8721 0.6875 40.2744 0.6875L35.7583 0.6875L36.2197 2.81104L44.0703 2.81104C43.9067 2.72803 43.7485 2.63281 43.5972 2.52686L41.9585 1.22412ZM8.30566 3.32959C8.20898 3.32959 8.12988 3.41455 8.12988 3.51855C8.13037 3.56885 8.14844 3.6167 8.18164 3.65234C8.21436 3.68799 8.25879 3.70752 8.30566 3.70801L9.77197 3.70801C9.86865 3.70801 9.94775 3.62256 9.94775 3.51855C9.94775 3.41455 9.86865 3.32959 9.77197 3.32959L8.30566 3.32959ZM38.3306 3.32959C38.2344 3.32959 38.1553 3.41455 38.1553 3.51855C38.1553 3.56885 38.1738 3.6167 38.207 3.65234C38.2397 3.68799 38.2842 3.70752 38.3306 3.70801L39.7974 3.70801C39.894 3.70801 39.9727 3.62256 39.9727 3.51855C39.9727 3.41455 39.894 3.32959 39.7974 3.32959L38.3306 3.32959ZM51.9312 4.57373C51.8457 4.01025 51.7334 3.59863 51.6108 3.46826C51.4736 3.46729 51.27 3.4624 51.0176 3.4541L51.5029 4.57373L51.9312 4.57373ZM51.624 4.85205L52.061 5.85889C52.0396 5.50049 52.0083 5.15967 51.9697 4.85205L51.624 4.85205ZM5.71387 5.60303C6.77686 5.60303 7.64893 6.479 7.74463 7.59766C7.75049 7.66553 7.75342 7.7334 7.75342 7.80127C7.75342 9.01562 6.84033 10 5.71387 10C4.5874 10 3.67432 9.01562 3.67432 7.80127C3.67432 7.73291 3.67773 7.66504 3.68359 7.59766C3.77881 6.479 4.65137 5.60303 5.71387 5.60303ZM50.0371 7.59766C49.9414 6.479 49.0693 5.60303 48.0063 5.60303C46.9434 5.60303 46.0708 6.479 45.9756 7.59766C45.9697 7.66504 45.9663 7.73291 45.9663 7.80127C45.9663 9.01562 46.8799 10 48.0063 10C49.1328 10 50.0459 9.01562 50.0459 7.80127C50.0459 7.7334 50.043 7.66553 50.0371 7.59766ZM4.38965 7.80127C4.38965 8.58838 4.98389 9.229 5.71387 9.229C6.44434 9.229 7.03809 8.58838 7.03809 7.80127C7.03809 7.75879 7.03613 7.71484 7.03223 7.66846C6.96924 6.93066 6.40234 6.37402 5.71387 6.37402C5.02539 6.37402 4.4585 6.93066 4.396 7.66846C4.3916 7.71631 4.38965 7.75977 4.38965 7.80127ZM48.0063 9.229C47.2764 9.229 46.6821 8.58838 46.6821 7.80127C46.6821 7.75977 46.6841 7.71631 46.688 7.66846C46.751 6.93066 47.3179 6.37402 48.0063 6.37402C48.6948 6.37402 49.2617 6.93066 49.3242 7.66846C49.3286 7.71484 49.3306 7.75879 49.3306 7.80127C49.3306 8.58838 48.7363 9.229 48.0063 9.229ZM47.5957 7.31543C47.708 7.20508 47.8545 7.14453 48.0063 7.14551C48.3228 7.14551 48.583 7.40039 48.6118 7.73926C48.6138 7.76172 48.6147 7.78271 48.6147 7.80176C48.6147 8.16309 48.3418 8.45752 48.0063 8.45752C47.6704 8.45752 47.3975 8.16309 47.3975 7.80176C47.3975 7.78125 47.3984 7.76074 47.4004 7.74023C47.4141 7.57715 47.4834 7.42529 47.5957 7.31543ZM5.71387 7.14551C5.5625 7.14453 5.41553 7.20508 5.30322 7.31543C5.19141 7.42529 5.12158 7.57715 5.1084 7.74023C5.10645 7.76074 5.10547 7.78125 5.10498 7.80176C5.10498 8.16309 5.37842 8.45752 5.71387 8.45752C6.0498 8.45752 6.32275 8.16309 6.32275 7.80176C6.32275 7.78271 6.32178 7.76172 6.31982 7.73926C6.29102 7.40039 6.03027 7.14551 5.71387 7.14551Z" fill="#000000" fill-opacity="1.000000" fill-rule="evenodd"/>
	</g>
</svg>
