<svg width="36.000000" height="10.000000" viewBox="0 0 36 10" fill="none" xmlns="http://www.w3.org/2000/svg" xmlns:xlink="http://www.w3.org/1999/xlink">
	<desc>
			Created with Pixso.
	</desc>
	<defs/>
	<g opacity="0.600000">
		<path id="Vector" d="M30.8833 4.80664C29.335 4.80664 28.0796 6.05713 28.0796 7.6001C28.0796 7.77881 28.0972 7.95703 28.1309 8.13232L8.78027 8.13232C8.81348 7.95996 8.83154 7.78223 8.83154 7.6001C8.83154 6.05713 7.57617 4.80664 6.02783 4.80664C4.47949 4.80664 3.22412 6.05713 3.22412 7.6001C3.22412 7.74023 3.23438 7.88037 3.25537 8.01904L1.04248 7.30957L0 5.2168L0.480957 4.61865L0.240723 3.9458L1.604 2.6748L6.81592 1.25439L8.49072 0.473633C8.97266 0.249023 9.49658 0.127441 10.0283 0.117188L15.895 0.000976562C16.4639 -0.0107422 17.0278 0.106445 17.5444 0.343262L21.4902 2.15137C21.4902 2.15137 35.7104 3.19824 35.9507 4.76807C36.1914 6.33789 35.4697 8.13232 35.4697 8.13232L33.6357 8.13232C33.6689 7.95996 33.687 7.78223 33.687 7.6001C33.687 6.05713 32.4321 4.80664 30.8833 4.80664ZM9.8501 2.04199C9.88623 2.06152 9.92627 2.07227 9.96729 2.07373L20.9561 2.48682L17.3232 0.822266C16.8794 0.618164 16.3945 0.51709 15.9058 0.527832L10.2358 0.640137C10.1787 0.641602 10.1235 0.660645 10.0781 0.695312C10.0327 0.72998 9.99951 0.777832 9.9834 0.83252L9.71924 1.73096C9.70801 1.77002 9.70557 1.81104 9.7124 1.85156C9.71924 1.8916 9.73535 1.92969 9.75928 1.9624C9.7832 1.99561 9.81445 2.02295 9.8501 2.04199ZM10.4673 2.95557L12.3682 3.01807L12.3794 2.67041L10.4785 2.60742L10.4673 2.95557ZM8.42627 7.37744C8.43311 7.45068 8.43701 7.5249 8.43701 7.6001C8.43701 8.92529 7.3584 10 6.02832 10C4.69727 10 3.61865 8.92529 3.61865 7.6001C3.61914 7.52588 3.62256 7.45166 3.62939 7.37744C3.74219 6.15625 4.77246 5.19971 6.02832 5.19971C7.2832 5.19971 8.31348 6.15625 8.42627 7.37744ZM33.2925 7.6001C33.2925 7.5249 33.2886 7.45068 33.2817 7.37744C33.1694 6.15625 32.1387 5.19971 30.8838 5.19971C29.6284 5.19971 28.5977 6.15625 28.4849 7.37744C28.478 7.45166 28.4746 7.52588 28.4741 7.6001C28.4741 8.92529 29.5527 10 30.8838 10C32.2139 10 33.2925 8.92529 33.2925 7.6001ZM4.46387 7.6001C4.46387 8.45898 5.16553 9.1582 6.02832 9.1582C6.89062 9.1582 7.5918 8.45898 7.5918 7.6001C7.5918 7.55322 7.58984 7.50586 7.58496 7.45459C7.51074 6.64941 6.84131 6.04199 6.02832 6.04199C5.21484 6.04199 4.54541 6.64941 4.47119 7.45508C4.46631 7.50732 4.46387 7.5542 4.46387 7.6001ZM30.8838 9.1582C30.021 9.1582 29.3193 8.45898 29.3193 7.6001C29.3193 7.5542 29.3218 7.50732 29.3267 7.45508C29.4009 6.64941 30.0703 6.04199 30.8838 6.04199C31.6968 6.04199 32.3662 6.64941 32.4404 7.45459C32.4453 7.50586 32.4478 7.55322 32.4478 7.6001C32.4473 8.45898 31.7461 9.1582 30.8838 9.1582ZM6.74707 7.6001C6.74707 7.5791 6.74561 7.55664 6.74365 7.53174C6.70947 7.16211 6.40186 6.88379 6.02832 6.88379C5.84863 6.88281 5.67578 6.94922 5.54297 7.06934C5.41064 7.18945 5.32812 7.35498 5.3125 7.5332C5.31006 7.55518 5.30908 7.57764 5.30908 7.6001C5.30908 7.99512 5.63135 8.31641 6.02783 8.31641C6.21875 8.31592 6.40137 8.24072 6.53613 8.10596C6.6709 7.97168 6.74658 7.79004 6.74707 7.6001ZM31.5991 7.53174C31.6011 7.55664 31.6025 7.5791 31.6025 7.6001C31.6021 7.79004 31.5264 7.97168 31.3916 8.10596C31.2568 8.24072 31.0742 8.31592 30.8838 8.31641C30.4873 8.31641 30.1646 7.99512 30.1646 7.6001C30.1646 7.57764 30.1655 7.55518 30.168 7.5332C30.1836 7.35498 30.2661 7.18945 30.3984 7.06934C30.5312 6.94922 30.7041 6.88281 30.8838 6.88379C31.2573 6.88379 31.5649 7.16211 31.5991 7.53174Z" fill="#000000" fill-opacity="1.000000" fill-rule="evenodd"/>
	</g>
</svg>
