<svg width="36.000000" height="10.000000" viewBox="0 0 36 10" fill="none" xmlns="http://www.w3.org/2000/svg" xmlns:xlink="http://www.w3.org/1999/xlink">
	<desc>
			Created with Pixso.
	</desc>
	<defs/>
	<g opacity="0.600000">
		<path id="Vector" d="M27.0479 7.49072C27.0479 5.86182 28.3188 4.5415 29.8862 4.5415C31.4536 4.5415 32.7246 5.86182 32.7246 7.49072C32.7246 7.8833 32.6504 8.25732 32.5161 8.6001L36 8.6001L35.9185 8.17725L34.8989 7.30273L34.4692 5.0083C33.5669 4.25293 20.8936 0.167969 19.3755 0.104004C17.8027 0.0380859 15.8306 -0.0263672 14.7925 0.0107422C12.897 0.0786133 6.2373 1.9082 6.2373 1.9082L3.72119 2.20947L3.62256 1.69775L5.07422 1.85742L5.07422 0.800293L0.0678711 0.250488L0.0678711 1.30762L1.36621 1.4502L1.60742 2.69971L0.428223 5.49951L0 5.97412L0.611328 8.6001L1.854 8.6001C1.71631 8.24756 1.64551 7.87109 1.646 7.49072C1.646 5.86182 2.9165 4.5415 4.48438 4.5415C6.05176 4.5415 7.32275 5.86182 7.32275 7.49072C7.32275 7.8833 7.24854 8.25732 7.11426 8.6001L27.2559 8.6001C27.1182 8.24756 27.0474 7.87109 27.0479 7.49072ZM14.0103 2.0752L13.6953 0.705566C14.1504 0.628418 14.5356 0.578613 14.811 0.568359C15.0503 0.561035 15.2896 0.557617 15.5283 0.558105C16.4131 0.558105 17.7358 0.59375 19.354 0.661621C19.9111 0.685059 22.0913 1.29395 24.6147 2.07422L25.0566 2.9834L14.2783 2.30859C14.2153 2.30469 14.1553 2.27979 14.1069 2.23779C14.0591 2.1958 14.0249 2.13867 14.0103 2.0752ZM1.88379 2.42969L1.70166 1.4873L3.28711 1.66113L3.40039 2.24805L1.88379 2.42969ZM26.7192 3.0874L25.6167 3.01855L24.9893 2.19092C25.6504 2.39697 26.3105 2.60645 26.9692 2.81982L27.0879 2.8584L27.064 2.89893C27.0288 2.95996 26.9775 3.01025 26.917 3.04346C26.856 3.07666 26.7876 3.0918 26.7192 3.0874ZM17.3267 3.53857L14.8843 3.39795L14.6807 2.96094L17.6929 3.17236L17.3267 3.53857ZM6.89941 7.49072C6.89941 6.10693 5.81592 4.98145 4.48438 4.98145C3.15283 4.98145 2.06934 6.10693 2.06934 7.49072C2.06934 8.87402 3.15283 10 4.48438 10C5.81592 10 6.89941 8.87402 6.89941 7.49072ZM32.3013 7.49072C32.3013 6.10693 31.2178 4.98145 29.8862 4.98145C28.5547 4.98145 27.4712 6.10693 27.4712 7.49072C27.4712 8.87402 28.5547 10 29.8862 10C31.2178 10 32.3013 8.87402 32.3013 7.49072ZM4.48438 9.37109C3.48633 9.37109 2.6748 8.52734 2.6748 7.49072C2.6748 6.45361 3.48633 5.60986 4.48438 5.60986C5.48242 5.60986 6.29395 6.45361 6.29395 7.49072C6.29395 8.52734 5.48242 9.37109 4.48438 9.37109ZM29.8862 9.37109C28.8882 9.37109 28.0767 8.52734 28.0767 7.49072C28.0767 6.45361 28.8882 5.60986 29.8862 5.60986C30.8843 5.60986 31.6958 6.45361 31.6958 7.49072C31.6958 8.52734 30.8843 9.37109 29.8862 9.37109ZM5.29004 7.49072C5.29004 7.95312 4.9292 8.32764 4.48438 8.32764C4.03955 8.32764 3.67871 7.95312 3.67871 7.49072C3.67871 7.02832 4.03955 6.65381 4.48438 6.65381C4.9292 6.65381 5.29004 7.02832 5.29004 7.49072ZM30.6919 7.49072C30.6919 7.95312 30.3311 8.32764 29.8862 8.32764C29.4414 8.32764 29.0806 7.95312 29.0806 7.49072C29.0806 7.02832 29.4414 6.65381 29.8862 6.65381C30.3311 6.65381 30.6919 7.02832 30.6919 7.49072ZM8.33105 8.12109C8.28418 8.12158 8.23779 8.11279 8.19385 8.09473C8.15039 8.07666 8.11084 8.0498 8.07764 8.01562C8.04395 7.98193 8.01758 7.94092 7.99951 7.896C7.98145 7.85107 7.97217 7.80322 7.97217 7.75439C7.97217 7.70557 7.98145 7.65771 7.99951 7.61279C8.01758 7.56787 8.04395 7.52686 8.07764 7.49316C8.11084 7.45898 8.15039 7.43213 8.19385 7.41406C8.23779 7.396 8.28418 7.38721 8.33105 7.3877C8.42334 7.38965 8.51172 7.42871 8.57617 7.49756C8.64111 7.56592 8.67773 7.6582 8.67773 7.75439C8.67773 7.85059 8.64111 7.94287 8.57617 8.01123C8.51172 8.08008 8.42334 8.11914 8.33105 8.12109ZM9.59277 8.12109C9.5459 8.12158 9.49951 8.11279 9.45605 8.09473C9.4126 8.07666 9.37256 8.0498 9.33936 8.01562C9.30615 7.98193 9.2793 7.94092 9.26123 7.896C9.24316 7.85107 9.23389 7.80322 9.23389 7.75439C9.23389 7.70557 9.24316 7.65771 9.26123 7.61279C9.2793 7.56787 9.30615 7.52686 9.33936 7.49316C9.37256 7.45898 9.4126 7.43213 9.45605 7.41406C9.49951 7.396 9.5459 7.38721 9.59277 7.3877C9.68506 7.38965 9.77344 7.42871 9.83838 7.49756C9.90283 7.56592 9.93945 7.6582 9.93945 7.75439C9.93945 7.85059 9.90283 7.94287 9.83838 8.01123C9.77344 8.08008 9.68506 8.11914 9.59277 8.12109Z" fill="#000000" fill-opacity="1.000000" fill-rule="evenodd"/>
	</g>
</svg>
