<svg width="30.000000" height="12.000000" viewBox="0 0 30 12" fill="none" xmlns="http://www.w3.org/2000/svg" xmlns:xlink="http://www.w3.org/1999/xlink">
	<defs/>
	<g opacity="0.600000">
		<path id="Vector" d="M1.67041 9.33838L0.318848 9.30518C-0.0834961 9.29541 -0.0952148 8.08545 0.228027 7.83594L0.0297852 5.70117C0.0112305 5.52197 0.0439453 5.34131 0.123047 5.1792C0.202637 5.0166 0.32666 4.87891 0.480469 4.78125L0.57959 4.71826L0.495605 3.26855C0.488281 3.13965 0.512695 3.01074 0.566895 2.89258C0.621582 2.7749 0.704102 2.67188 0.807617 2.59229L3.22266 0.73584C3.3208 0.660156 3.29395 0.507812 3.17578 0.46875C3.04199 0.424805 3.03076 0.243164 3.1582 0.184082L3.45654 0.0454102C3.47705 0.0356445 3.5 0.0307617 3.52295 0.0307617L14.9058 0C16.0342 -0.00292969 17.1421 0.297852 18.1084 0.869629L21.2729 2.74219C21.4326 2.83691 21.6094 2.90039 21.7935 2.93018L28.1484 4.3833C28.4185 4.42676 29.1636 5.52881 29.1636 5.52881L29.6572 5.87207C29.7676 5.94873 29.8535 6.05469 29.9058 6.17725C29.9575 6.2998 29.9736 6.43408 29.9512 6.56494L29.6553 8.50928L29.6812 8.51025C30.1313 8.521 30.0928 10.0361 29.6426 10.0254L27.8506 9.98096L27.8506 10.0845L27.2822 10.0845L27.2822 9.80566C27.2822 8.39697 26.1147 7.25146 24.6802 7.25146C23.2451 7.25146 22.0776 8.39697 22.0776 9.80566L22.0776 10.0845L21.5093 10.0845L21.5093 9.82568L7.95996 9.49268C7.9707 9.5957 7.97607 9.7002 7.97607 9.80566L7.97607 10.0845L7.40771 10.0845L7.40771 9.80566C7.40771 8.39697 6.24023 7.25146 4.80518 7.25146C3.37061 7.25146 2.20312 8.39697 2.20312 9.80566L2.20312 10.0845L1.63477 10.0845L1.63477 9.80566C1.63477 9.64893 1.64648 9.49316 1.67041 9.33838ZM17.8149 1.34766C16.9419 0.831055 15.9419 0.558105 14.9229 0.558105L12.311 0.564941L12.8262 3.46289L20.2578 3.76172C20.3574 3.76562 20.4556 3.74219 20.542 3.69482C20.6284 3.64697 20.6997 3.57666 20.7476 3.49121L20.4258 2.89258L17.8149 1.34766ZM5.63281 0.583008L5.4292 3.16504L12.0029 3.42969L11.7769 0.566406L5.63281 0.583008ZM3.78418 0.914062C3.73584 1.0166 3.66357 1.10596 3.57324 1.17529L1.9165 2.44873L2.02051 2.71143C2.05811 2.80713 2.12354 2.89014 2.2085 2.94971C2.29346 3.00928 2.39453 3.04297 2.49854 3.04688L4.64355 3.1333L5.09668 0.584473L3.85107 0.587891C3.85547 0.700195 3.83252 0.812012 3.78418 0.914062ZM5.8208 3.85986L5.80859 4.1665L7.51025 4.23242L7.52295 3.92578L5.8208 3.85986ZM13.1831 4.13721L13.1709 4.44385L14.873 4.50977L14.8853 4.20312L13.1831 4.13721ZM26.916 9.80566C26.916 9.73682 26.9126 9.66895 26.9062 9.60205C26.8013 8.48535 25.8452 7.61084 24.6802 7.61084C23.5151 7.61084 22.5586 8.48535 22.4541 9.60205C22.4478 9.66992 22.4443 9.73779 22.4438 9.80566C22.4438 11.0176 23.4448 12 24.6802 12C25.915 12 26.916 11.0176 26.916 9.80566ZM2.57959 9.60254C2.68408 8.48535 3.64062 7.61084 4.80566 7.61084C5.9707 7.61084 6.92676 8.48535 7.03125 9.60254C7.0376 9.66895 7.04102 9.73682 7.04102 9.80566C7.04102 11.0176 6.04004 12 4.80566 12C3.57031 12 2.56934 11.0176 2.56934 9.80566C2.56934 9.73779 2.57275 9.66992 2.57959 9.60254ZM3.354 9.80566C3.354 10.5908 4.00488 11.23 4.80566 11.23C5.60596 11.23 6.25684 10.5913 6.25684 9.80566C6.25684 9.7627 6.25488 9.71924 6.25049 9.67285C6.18164 8.93604 5.56006 8.38086 4.80566 8.38086C4.05078 8.38086 3.4292 8.93604 3.36035 9.67285C3.35596 9.7207 3.354 9.76367 3.354 9.80566ZM24.6802 11.23C23.8799 11.23 23.2285 10.5908 23.2285 9.80566C23.2285 9.76367 23.2305 9.7207 23.2354 9.67285C23.3042 8.93604 23.9253 8.38086 24.6802 8.38086C25.4351 8.38086 26.0562 8.93604 26.125 9.67285C26.1294 9.71924 26.1318 9.7627 26.1318 9.80566C26.1313 10.5913 25.4805 11.23 24.6802 11.23ZM25.3442 9.74316C25.3462 9.76562 25.3472 9.78662 25.3472 9.80566C25.3472 10.1665 25.0479 10.4604 24.6802 10.4604C24.312 10.4604 24.0127 10.1665 24.0127 9.80566C24.0127 9.78516 24.0142 9.76465 24.0161 9.74414C24.0308 9.58154 24.1069 9.43018 24.23 9.32031C24.353 9.20996 24.5137 9.14941 24.6802 9.15039C25.0269 9.15039 25.3125 9.40527 25.3442 9.74316ZM4.80566 9.15039C4.63916 9.14941 4.47852 9.20996 4.35547 9.32031C4.23242 9.43018 4.15576 9.58154 4.1416 9.74414C4.13916 9.76465 4.13818 9.78516 4.13818 9.80566C4.13818 10.1665 4.4375 10.4604 4.80566 10.4604C5.17334 10.4604 5.47266 10.1665 5.47266 9.80566C5.47266 9.78662 5.47168 9.76562 5.46973 9.74316C5.43799 9.40527 5.15234 9.15039 4.80566 9.15039Z" fill="#000000" fill-opacity="1.000000" fill-rule="evenodd"/>
	</g>
</svg>
