<svg version="1.1" xmlns="http://www.w3.org/2000/svg" xmlns:xlink="http://www.w3.org/1999/xlink" width="630" height="390" viewBox="0 0 630 390">
<style type="text/css">
	.st0{fill:#EAF1FC;}
	.st1{fill:#F8F8FF;}
	.st2{fill:#CDE4F7;}
	.st3{fill:#E9EDF4;}
	.st4{fill:#FFFFFF;}
	.st5{fill:#ECF7FE;}
	.st6{fill:#F8C47A;}
	.st7{fill:#E19A54;}
	.st8{fill:#FFDF9A;}
	.st9{fill:#D38137;}
	.st10{fill:#E4E6E6;}
	.st11{fill:#E5B571;}
	.st12{fill:#CE8D4D;}
	.st13{fill:#ECCF8F;}
	.st14{fill:#C07632;}
	.st15{fill:#132C45;}
	.st16{fill:#FFDA36;}
	.st17{fill:#F18419;}
	.st18{fill:#F2F3F5;}
	.st19{fill:#ADBF5B;}
	.st20{fill:#C8D540;}
	.st21{fill:#0682A0;}
	.st22{fill:#0F222C;}
	.st23{fill:#2C6292;}
	.st24{fill:#1A568C;}
	.st25{fill:#114574;}
	.st26{fill:#164F83;}
	.st27{fill:#0C3860;}
	.st28{fill:#11426D;}
	.st29{fill:#25649D;}
	.st30{fill:#3873A9;}
	.st31{fill:#164C7C;}
	.st32{fill:#3679B6;}
	.st33{fill:#2A6EAC;}
	.st34{fill:#23619A;}
	.st35{fill:#1D4259;}
	.st36{fill:#448DCE;}
	.st37{fill:#3270A7;}
	.st38{fill:#222846;}
	.st39{fill:#FFDA35;}
	.st40{fill:#0B2B46;}
	.st41{fill:#FF524F;}
	.st42{fill:#F2F2F2;}
	.st43{fill:#F19100;}
	.st44{fill:#E08F73;}
	.st45{fill:#F09976;}
	.st46{fill:#E8815F;}
	.st47{fill:#047487;}
	.st48{fill:#05616B;}
	.st49{fill:#02819F;}
</style>
<path class="st0" d="M314.5,380c173.7,0,314.5-25.1,314.5-56s-140.8-56-314.5-56S0,293.1,0,324S140.8,380,314.5,380z"/>
<path class="st1" d="M599.6,301.9c29.2-73.2,48.3-220.3-40.2-266.7c-57.9-30.3-118.3,8.7-180.2,10.5C330.6,47,283.7,14,239.9,4.6
	C124.9-20.1-55.9,51.6,23.6,301.9C222.4,301.4,400.8,302.3,599.6,301.9z"/>
<path class="st2" d="M368.4,120.5H471v182.5H368.4V120.5z"/>
<path class="st3" d="M368.4,120.5h32v182.5h-32V120.5z"/>
<path class="st4" d="M457.2,124h4.8v6.2h-4.8V124z M448.6,124h4.8v6.2h-4.8V124z M439.9,124h4.8v6.2h-4.8V124z M431.2,124h4.8v6.2
	h-4.8V124z M422.5,124h4.8v6.2h-4.8V124z M413.9,124h4.8v6.2h-4.8V124z M405.2,124h4.8v6.2h-4.8V124z M389.3,124h4.8v6.2h-4.8V124z
	 M380.7,124h4.8v6.2h-4.8V124z M372,124h4.8v6.2H372V124z M457.2,137.1h4.8v6.2h-4.8V137.1z M448.6,137.1h4.8v6.2h-4.8V137.1z
	 M439.9,137.1h4.8v6.2h-4.8V137.1z M431.2,137.1h4.8v6.2h-4.8V137.1z M422.5,137.1h4.8v6.2h-4.8V137.1z M413.9,137.1h4.8v6.2h-4.8
	V137.1z M405.2,137.1h4.8v6.2h-4.8V137.1z M389.3,137.1h4.8v6.2h-4.8V137.1z M380.7,137.1h4.8v6.2h-4.8V137.1z M372,137.1h4.8v6.2
	H372V137.1z M457.2,150.1h4.8v6.2h-4.8V150.1z M448.6,150.1h4.8v6.2h-4.8V150.1z M439.9,150.1h4.8v6.2h-4.8V150.1z M431.2,150.1h4.8
	v6.2h-4.8V150.1z M422.5,150.1h4.8v6.2h-4.8V150.1z M413.9,150.1h4.8v6.2h-4.8V150.1z M405.2,150.1h4.8v6.2h-4.8V150.1z
	 M389.3,150.1h4.8v6.2h-4.8V150.1z M380.7,150.1h4.8v6.2h-4.8V150.1z M372,150.1h4.8v6.2H372V150.1z M457.2,163.2h4.8v6.2h-4.8
	V163.2z M448.6,163.2h4.8v6.2h-4.8V163.2z M439.9,163.2h4.8v6.2h-4.8V163.2z M431.2,163.2h4.8v6.2h-4.8V163.2z M422.5,163.2h4.8v6.2
	h-4.8V163.2z M413.9,163.2h4.8v6.2h-4.8V163.2z M405.2,163.2h4.8v6.2h-4.8V163.2z M389.3,163.2h4.8v6.2h-4.8V163.2z M380.7,163.2
	h4.8v6.2h-4.8V163.2z M372,163.2h4.8v6.2H372V163.2z M457.2,176.3h4.8v6.2h-4.8V176.3z M448.6,176.3h4.8v6.2h-4.8V176.3z
	 M439.9,176.3h4.8v6.2h-4.8V176.3z M431.2,176.3h4.8v6.2h-4.8V176.3z M422.5,176.3h4.8v6.2h-4.8V176.3z M413.9,176.3h4.8v6.2h-4.8
	V176.3z M405.2,176.3h4.8v6.2h-4.8V176.3z M389.3,176.3h4.8v6.2h-4.8V176.3z M380.7,176.3h4.8v6.2h-4.8V176.3z M372,176.3h4.8v6.2
	H372V176.3z M457.2,189.3h4.8v6.2h-4.8V189.3z M448.6,189.3h4.8v6.2h-4.8V189.3z M439.9,189.3h4.8v6.2h-4.8V189.3z M431.2,189.3h4.8
	v6.2h-4.8V189.3z M422.5,189.3h4.8v6.2h-4.8V189.3z M413.9,189.3h4.8v6.2h-4.8V189.3z M405.2,189.3h4.8v6.2h-4.8V189.3z
	 M389.3,189.3h4.8v6.2h-4.8V189.3z M380.7,189.3h4.8v6.2h-4.8V189.3z M372,189.3h4.8v6.2H372V189.3z M457.2,202.3h4.8v6.2h-4.8
	V202.3z M448.6,202.3h4.8v6.2h-4.8V202.3z M439.9,202.3h4.8v6.2h-4.8V202.3z M431.2,202.3h4.8v6.2h-4.8V202.3z M422.5,202.3h4.8v6.2
	h-4.8V202.3z M413.9,202.3h4.8v6.2h-4.8V202.3z M405.2,202.3h4.8v6.2h-4.8V202.3z M389.3,202.3h4.8v6.2h-4.8V202.3z M380.7,202.3
	h4.8v6.2h-4.8V202.3z M372,202.3h4.8v6.2H372V202.3z M457.2,215.4h4.8v6.2h-4.8V215.4z M448.6,215.4h4.8v6.2h-4.8V215.4z
	 M439.9,215.4h4.8v6.2h-4.8V215.4z M431.2,215.4h4.8v6.2h-4.8V215.4z M422.5,215.4h4.8v6.2h-4.8V215.4z M413.9,215.4h4.8v6.2h-4.8
	V215.4z M405.2,215.4h4.8v6.2h-4.8V215.4z M389.3,215.4h4.8v6.2h-4.8V215.4z M380.7,215.4h4.8v6.2h-4.8V215.4z M372,215.4h4.8v6.2
	H372V215.4z M457.2,228.5h4.8v6.2h-4.8V228.5z M448.6,228.5h4.8v6.2h-4.8V228.5z M439.9,228.5h4.8v6.2h-4.8V228.5z M431.2,228.5h4.8
	v6.2h-4.8V228.5z M422.5,228.5h4.8v6.2h-4.8V228.5z M413.9,228.5h4.8v6.2h-4.8V228.5z M405.2,228.5h4.8v6.2h-4.8V228.5z
	 M389.3,228.5h4.8v6.2h-4.8V228.5z M380.7,228.5h4.8v6.2h-4.8V228.5z M372,228.5h4.8v6.2H372V228.5z M457.2,241.5h4.8v6.2h-4.8
	V241.5z M448.6,241.5h4.8v6.2h-4.8V241.5z M439.9,241.5h4.8v6.2h-4.8V241.5z M431.2,241.5h4.8v6.2h-4.8V241.5z M422.5,241.5h4.8v6.2
	h-4.8V241.5z M413.9,241.5h4.8v6.2h-4.8V241.5z M405.2,241.5h4.8v6.2h-4.8V241.5z M389.3,241.5h4.8v6.2h-4.8V241.5z M380.7,241.5
	h4.8v6.2h-4.8V241.5z M372,241.5h4.8v6.2H372V241.5z M457.2,254.6h4.8v6.2h-4.8V254.6z M448.6,254.6h4.8v6.2h-4.8V254.6z
	 M439.9,254.6h4.8v6.2h-4.8V254.6z M431.2,254.6h4.8v6.2h-4.8V254.6z M422.5,254.6h4.8v6.2h-4.8V254.6z M413.9,254.6h4.8v6.2h-4.8
	V254.6z M405.2,254.6h4.8v6.2h-4.8V254.6z M389.3,254.6h4.8v6.2h-4.8V254.6z M380.7,254.6h4.8v6.2h-4.8V254.6z M372,254.6h4.8v6.2
	H372V254.6z M457.2,267.6h4.8v6.2h-4.8V267.6z M448.6,267.6h4.8v6.2h-4.8V267.6z M439.9,267.6h4.8v6.2h-4.8V267.6z M431.2,267.6h4.8
	v6.2h-4.8V267.6z M422.5,267.6h4.8v6.2h-4.8V267.6z M413.9,267.6h4.8v6.2h-4.8V267.6z M405.2,267.6h4.8v6.2h-4.8V267.6z
	 M389.3,267.6h4.8v6.2h-4.8V267.6z M380.7,267.6h4.8v6.2h-4.8V267.6z M372,267.6h4.8v6.2H372V267.6z M457.2,280.7h4.8v6.2h-4.8
	V280.7z M448.6,280.7h4.8v6.2h-4.8V280.7z M439.9,280.7h4.8v6.2h-4.8V280.7z M431.2,280.7h4.8v6.2h-4.8V280.7z M422.5,280.7h4.8v6.2
	h-4.8V280.7z M413.9,280.7h4.8v6.2h-4.8V280.7z M405.2,280.7h4.8v6.2h-4.8V280.7z M389.3,280.7h4.8v6.2h-4.8V280.7z M380.7,280.7
	h4.8v6.2h-4.8V280.7z M372,280.7h4.8v6.2H372V280.7z M457.2,293.8h4.8v6.2h-4.8V293.8z M448.6,293.8h4.8v6.2h-4.8V293.8z
	 M439.9,293.8h4.8v6.2h-4.8V293.8z M431.2,293.8h4.8v6.2h-4.8V293.8z M422.5,293.8h4.8v6.2h-4.8V293.8z M413.9,293.8h4.8v6.2h-4.8
	V293.8z M405.2,293.8h4.8v6.2h-4.8V293.8z M389.3,293.8h4.8v6.2h-4.8V293.8z M380.7,293.8h4.8v6.2h-4.8V293.8z M372,293.8h4.8v6.2
	H372V293.8z"/>
<path class="st2" d="M287.6,151.9h95.2V303h-95.2V151.9z"/>
<path class="st3" d="M287.6,151.9h29.7V303h-29.7V151.9z"/>
<path class="st4" d="M372.3,159.5h4.4V182h-4.4V159.5z M364.3,159.5h4.4V182h-4.4V159.5z M356.3,159.5h4.4V182h-4.4V159.5z
	 M348.3,159.5h4.4V182h-4.4V159.5z M340.3,159.5h4.4V182h-4.4V159.5z M332.3,159.5h4.4V182h-4.4V159.5z M324.3,159.5h4.4V182h-4.4
	V159.5z M309.7,159.5h4.4V182h-4.4V159.5z M301.7,159.5h4.4V182h-4.4V159.5z M293.7,159.5h4.4V182h-4.4V159.5z M372.3,184.9h4.4
	v22.6h-4.4V184.9z M364.3,184.9h4.4v22.6h-4.4V184.9z M356.3,184.9h4.4v22.6h-4.4V184.9z M348.3,184.9h4.4v22.6h-4.4V184.9z
	 M340.3,184.9h4.4v22.6h-4.4V184.9z M332.3,184.9h4.4v22.6h-4.4V184.9z M324.3,184.9h4.4v22.6h-4.4V184.9z M309.7,184.9h4.4v22.6
	h-4.4V184.9z M301.7,184.9h4.4v22.6h-4.4V184.9z M293.7,184.9h4.4v22.6h-4.4V184.9z M372.3,210.5h4.4V233h-4.4V210.5z M364.3,210.5
	h4.4V233h-4.4V210.5z M356.3,210.5h4.4V233h-4.4V210.5z M348.3,210.5h4.4V233h-4.4V210.5z M340.3,210.5h4.4V233h-4.4V210.5z
	 M332.3,210.5h4.4V233h-4.4V210.5z M324.3,210.5h4.4V233h-4.4V210.5z M309.7,210.5h4.4V233h-4.4V210.5z M301.7,210.5h4.4V233h-4.4
	V210.5z M293.7,210.5h4.4V233h-4.4V210.5z M372.3,236h4.4v22.6h-4.4V236z M364.3,236h4.4v22.6h-4.4V236z M356.3,236h4.4v22.6h-4.4
	V236z M348.3,236h4.4v22.6h-4.4V236z M340.3,236h4.4v22.6h-4.4V236z M332.3,236h4.4v22.6h-4.4V236z M324.3,236h4.4v22.6h-4.4V236z
	 M309.7,236h4.4v22.6h-4.4V236z M301.7,236h4.4v22.6h-4.4V236z M293.7,236h4.4v22.6h-4.4V236z M372.3,261.5h4.4v22.6h-4.4V261.5z
	 M364.3,261.5h4.4v22.6h-4.4V261.5z M356.3,261.5h4.4v22.6h-4.4V261.5z M348.3,261.5h4.4v22.6h-4.4V261.5z M340.3,261.5h4.4v22.6
	h-4.4V261.5z M332.3,261.5h4.4v22.6h-4.4V261.5z M324.3,261.5h4.4v22.6h-4.4V261.5z M309.7,261.5h4.4v22.6h-4.4V261.5z M301.7,261.5
	h4.4v22.6h-4.4V261.5z M293.7,261.5h4.4v22.6h-4.4V261.5z"/>
<path class="st2" d="M65,98.7h95.2v204.2H65V98.7z"/>
<path class="st3" d="M65,98.7h29.7v204.2H65V98.7z"/>
<path class="st4" d="M125.7,108.4h4.4V131h-4.4V108.4z M117.7,108.4h4.4V131h-4.4V108.4z M109.8,108.4h4.4V131h-4.4V108.4z
	 M101.7,108.4h4.4V131h-4.4V108.4z M87.1,108.4h4.4V131h-4.4V108.4z M79.1,108.4h4.4V131h-4.4V108.4z M71.1,108.4h4.4V131h-4.4
	V108.4z M125.7,134h4.4v22.6h-4.4V134z M117.7,134h4.4v22.6h-4.4V134z M109.8,134h4.4v22.6h-4.4V134z M101.7,134h4.4v22.6h-4.4V134z
	 M87.1,134h4.4v22.6h-4.4V134z M79.1,134h4.4v22.6h-4.4V134z M71.1,134h4.4v22.6h-4.4V134z M125.7,159.5h4.4V182h-4.4V159.5z
	 M117.7,159.5h4.4V182h-4.4V159.5z M109.8,159.5h4.4V182h-4.4V159.5z M101.7,159.5h4.4V182h-4.4V159.5z M87.1,159.5h4.4V182h-4.4
	V159.5z M79.1,159.5h4.4V182h-4.4V159.5z M71.1,159.5h4.4V182h-4.4V159.5z M125.7,184.9h4.4v22.6h-4.4V184.9z M117.7,184.9h4.4v22.6
	h-4.4V184.9z M109.8,184.9h4.4v22.6h-4.4V184.9z M101.7,184.9h4.4v22.6h-4.4V184.9z M87.1,184.9h4.4v22.6h-4.4V184.9z M79.1,184.9
	h4.4v22.6h-4.4V184.9z M71.1,184.9h4.4v22.6h-4.4V184.9z M117.7,210.5h4.4V233h-4.4V210.5z M109.8,210.5h4.4V233h-4.4V210.5z
	 M101.7,210.5h4.4V233h-4.4V210.5z M87.1,210.5h4.4V233h-4.4V210.5z M79.1,210.5h4.4V233h-4.4V210.5z M71.1,210.5h4.4V233h-4.4
	V210.5z M109.8,236h4.4v22.6h-4.4V236z M101.7,236h4.4v22.6h-4.4V236z M87.1,236h4.4v22.6h-4.4V236z M79.1,236h4.4v22.6h-4.4V236z
	 M71.1,236h4.4v22.6h-4.4V236z M109.8,261.5h4.4v22.6h-4.4V261.5z M101.7,261.5h4.4v22.6h-4.4V261.5z M87.1,261.5h4.4v22.6h-4.4
	V261.5z M79.1,261.5h4.4v22.6h-4.4V261.5z M71.1,261.5h4.4v22.6h-4.4V261.5z"/>
<path class="st2" d="M240.4,115.7h66.1V303h-66.1V115.7z"/>
<path class="st5" d="M240.4,115.7h20.5V303h-20.5V115.7z"/>
<path class="st4" d="M240.5,122.4h66.1v1.6h-66.1V122.4z M240.5,134.7h66.1v1.6h-66.1V134.7z M240.5,147.1h66.1v1.6h-66.1V147.1z
	 M240.5,159.5h66.1v1.6h-66.1V159.5z M240.5,171.9h66.1v1.6h-66.1V171.9z M240.5,184.2h66.1v1.6h-66.1V184.2z M240.5,196.6h66.1v1.6
	h-66.1V196.6z M240.5,208.9h66.1v1.6h-66.1V208.9z M240.5,221.3h66.1v1.6h-66.1V221.3z M240.5,233.7h66.1v1.6h-66.1V233.7z
	 M240.5,246.1h66.1v1.6h-66.1V246.1z M240.5,258.4h66.1v1.6h-66.1V258.4z M240.5,270.8h66.1v1.6h-66.1V270.8z M240.5,283.1h66.1v1.6
	h-66.1V283.1z"/>
<path class="st2" d="M470.1,153h103.7V303H470.1V153z"/>
<path class="st3" d="M470.1,153h32.3V303h-32.3V153z"/>
<path class="st4" d="M470.1,161.1h103.7v1.2H470.1V161.1z M470.1,171h103.7v1.2H470.1V171z M470.1,180.9h103.7v1.2H470.1V180.9z
	 M470.1,190.8h103.7v1.2H470.1V190.8z M470.1,200.7h103.7v1.2H470.1V200.7z M470.1,210.7h103.7v1.2H470.1V210.7z M470.1,220.5h103.7
	v1.2H470.1V220.5z M470.1,230.5h103.7v1.2H470.1V230.5z M470.1,240.3h103.7v1.2H470.1V240.3z M470.1,250.3h103.7v1.2H470.1V250.3z
	 M470.1,260.1h103.7v1.2H470.1V260.1z M470.1,270.1h103.7v1.2H470.1V270.1z M470.1,279.9h103.7v1.2H470.1V279.9z M470.1,289.9h103.7
	v1.2H470.1V289.9z"/>
<path class="st2" d="M132.7,43.3h121.1V303H132.7V43.3z"/>
<path class="st5" d="M132.7,43.3h37.7V303h-37.7V43.3z"/>
<path class="st4" d="M240.4,55.6h5.6v7.5h-5.6V55.6z M230.2,55.6h5.6v7.5h-5.6V55.6z M220.1,55.6h5.6v7.5h-5.6V55.6z M209.9,55.6
	h5.6v7.5h-5.6V55.6z M199.7,55.6h5.6v7.5h-5.6V55.6z M189.5,55.6h5.6v7.5h-5.6V55.6z M179.4,55.6h5.6v7.5h-5.6V55.6z M160.8,55.6
	h5.6v7.5h-5.6V55.6z M150.6,55.6h5.6v7.5h-5.6V55.6z M140.4,55.6h5.6v7.5h-5.6V55.6z M240.4,71.3h5.6v7.5h-5.6V71.3z M230.2,71.3
	h5.6v7.5h-5.6V71.3z M220.1,71.3h5.6v7.5h-5.6V71.3z M209.9,71.3h5.6v7.5h-5.6V71.3z M199.7,71.3h5.6v7.5h-5.6V71.3z M189.5,71.3
	h5.6v7.5h-5.6V71.3z M179.4,71.3h5.6v7.5h-5.6V71.3z M160.8,71.3h5.6v7.5h-5.6V71.3z M150.6,71.3h5.6v7.5h-5.6V71.3z M140.4,71.3
	h5.6v7.5h-5.6V71.3z M240.4,87h5.6v7.5h-5.6V87z M230.2,87h5.6v7.5h-5.6V87z M220.1,87h5.6v7.5h-5.6V87z M209.9,87h5.6v7.5h-5.6V87z
	 M199.7,87h5.6v7.5h-5.6V87z M189.5,87h5.6v7.5h-5.6V87z M179.4,87h5.6v7.5h-5.6V87z M160.8,87h5.6v7.5h-5.6V87z M150.6,87h5.6v7.5
	h-5.6V87z M140.4,87h5.6v7.5h-5.6V87z M240.4,102.6h5.6v7.5h-5.6V102.6z M230.2,102.6h5.6v7.5h-5.6V102.6z M220.1,102.6h5.6v7.5
	h-5.6V102.6z M209.9,102.6h5.6v7.5h-5.6V102.6z M199.7,102.6h5.6v7.5h-5.6V102.6z M189.5,102.6h5.6v7.5h-5.6V102.6z M179.4,102.6
	h5.6v7.5h-5.6V102.6z M160.8,102.6h5.6v7.5h-5.6V102.6z M150.6,102.6h5.6v7.5h-5.6V102.6z M140.4,102.6h5.6v7.5h-5.6V102.6z
	 M240.4,118.3h5.6v7.5h-5.6V118.3z M230.2,118.3h5.6v7.5h-5.6V118.3z M220.1,118.3h5.6v7.5h-5.6V118.3z M209.9,118.3h5.6v7.5h-5.6
	V118.3z M199.7,118.3h5.6v7.5h-5.6V118.3z M189.5,118.3h5.6v7.5h-5.6V118.3z M179.4,118.3h5.6v7.5h-5.6V118.3z M160.8,118.3h5.6v7.5
	h-5.6V118.3z M150.6,118.3h5.6v7.5h-5.6V118.3z M140.4,118.3h5.6v7.5h-5.6V118.3z M240.4,134h5.6v7.5h-5.6V134z M230.2,134h5.6v7.5
	h-5.6V134z M220.1,134h5.6v7.5h-5.6V134z M209.9,134h5.6v7.5h-5.6V134z M199.7,134h5.6v7.5h-5.6V134z M189.5,134h5.6v7.5h-5.6V134z
	 M179.4,134h5.6v7.5h-5.6V134z M160.8,134h5.6v7.5h-5.6V134z M150.6,134h5.6v7.5h-5.6V134z M140.4,134h5.6v7.5h-5.6V134z
	 M240.4,149.5h5.6v7.5h-5.6V149.5z M230.2,149.5h5.6v7.5h-5.6V149.5z M220.1,149.5h5.6v7.5h-5.6V149.5z M209.9,149.5h5.6v7.5h-5.6
	V149.5z M199.7,149.5h5.6v7.5h-5.6V149.5z M189.5,149.5h5.6v7.5h-5.6V149.5z M179.4,149.5h5.6v7.5h-5.6V149.5z M160.8,149.5h5.6v7.5
	h-5.6V149.5z M150.6,149.5h5.6v7.5h-5.6V149.5z M140.4,149.5h5.6v7.5h-5.6V149.5z M240.4,165.2h5.6v7.5h-5.6V165.2z M230.2,165.2
	h5.6v7.5h-5.6V165.2z M220.1,165.2h5.6v7.5h-5.6V165.2z M209.9,165.2h5.6v7.5h-5.6V165.2z M199.7,165.2h5.6v7.5h-5.6V165.2z
	 M189.5,165.2h5.6v7.5h-5.6V165.2z M179.4,165.2h5.6v7.5h-5.6V165.2z M160.8,165.2h5.6v7.5h-5.6V165.2z M150.6,165.2h5.6v7.5h-5.6
	V165.2z M140.4,165.2h5.6v7.5h-5.6V165.2z M240.4,180.9h5.6v7.5h-5.6V180.9z M230.2,180.9h5.6v7.5h-5.6V180.9z M220.1,180.9h5.6v7.5
	h-5.6V180.9z M209.9,180.9h5.6v7.5h-5.6V180.9z M199.7,180.9h5.6v7.5h-5.6V180.9z M189.5,180.9h5.6v7.5h-5.6V180.9z M179.4,180.9
	h5.6v7.5h-5.6V180.9z M160.8,180.9h5.6v7.5h-5.6V180.9z M150.6,180.9h5.6v7.5h-5.6V180.9z M140.4,180.9h5.6v7.5h-5.6V180.9z
	 M240.4,196.5h5.6v7.5h-5.6V196.5z M230.2,196.5h5.6v7.5h-5.6V196.5z M220.1,196.5h5.6v7.5h-5.6V196.5z M209.9,196.5h5.6v7.5h-5.6
	V196.5z M199.7,196.5h5.6v7.5h-5.6V196.5z M189.5,196.5h5.6v7.5h-5.6V196.5z M179.4,196.5h5.6v7.5h-5.6V196.5z M160.8,196.5h5.6v7.5
	h-5.6V196.5z M150.6,196.5h5.6v7.5h-5.6V196.5z M140.4,196.5h5.6v7.5h-5.6V196.5z M240.4,212.2h5.6v7.5h-5.6V212.2z M230.2,212.2
	h5.6v7.5h-5.6V212.2z M220.1,212.2h5.6v7.5h-5.6V212.2z M209.9,212.2h5.6v7.5h-5.6V212.2z M199.7,212.2h5.6v7.5h-5.6V212.2z
	 M189.5,212.2h5.6v7.5h-5.6V212.2z M179.4,212.2h5.6v7.5h-5.6V212.2z M160.8,212.2h5.6v7.5h-5.6V212.2z M150.6,212.2h5.6v7.5h-5.6
	V212.2z M140.4,212.2h5.6v7.5h-5.6V212.2z M240.4,227.9h5.6v7.5h-5.6V227.9z M230.2,227.9h5.6v7.5h-5.6V227.9z M220.1,227.9h5.6v7.5
	h-5.6V227.9z M209.9,227.9h5.6v7.5h-5.6V227.9z M199.7,227.9h5.6v7.5h-5.6V227.9z M189.5,227.9h5.6v7.5h-5.6V227.9z M179.4,227.9
	h5.6v7.5h-5.6V227.9z M160.8,227.9h5.6v7.5h-5.6V227.9z M150.6,227.9h5.6v7.5h-5.6V227.9z M140.4,227.9h5.6v7.5h-5.6V227.9z
	 M240.4,243.5h5.6v7.5h-5.6V243.5z M230.2,243.5h5.6v7.5h-5.6V243.5z M220.1,243.5h5.6v7.5h-5.6V243.5z M209.9,243.5h5.6v7.5h-5.6
	V243.5z M199.7,243.5h5.6v7.5h-5.6V243.5z M189.5,243.5h5.6v7.5h-5.6V243.5z M179.4,243.5h5.6v7.5h-5.6V243.5z M160.8,243.5h5.6v7.5
	h-5.6V243.5z M150.6,243.5h5.6v7.5h-5.6V243.5z M140.4,243.5h5.6v7.5h-5.6V243.5z M240.4,259.2h5.6v7.5h-5.6V259.2z M230.2,259.2
	h5.6v7.5h-5.6V259.2z M220.1,259.2h5.6v7.5h-5.6V259.2z M209.9,259.2h5.6v7.5h-5.6V259.2z M199.7,259.2h5.6v7.5h-5.6V259.2z
	 M189.5,259.2h5.6v7.5h-5.6V259.2z M179.4,259.2h5.6v7.5h-5.6V259.2z M160.8,259.2h5.6v7.5h-5.6V259.2z M150.6,259.2h5.6v7.5h-5.6
	V259.2z M140.4,259.2h5.6v7.5h-5.6V259.2z"/>
<path class="st5" d="M236.7,43.3h-87.1v-11c0-4.6,3.5-8.3,8-8.3h71.1c4.4,0,8,3.7,8,8.3L236.7,43.3z"/>
<path class="st2" d="M591.8,292.5H588c-0.4,0-0.8,0.3-0.8,0.7l-0.6,14.5h6.4l-0.3-14.5C592.6,292.8,592.2,292.5,591.8,292.5z"/>
<path class="st2" d="M591.2,292.7h-2.9c-0.7,0-1.3-0.6-1.3-1.4v-2.6c0-0.7,0.6-1.4,1.3-1.4h2.9c0.7,0,1.3,0.6,1.3,1.4v2.7
	C592.5,292.1,591.9,292.7,591.2,292.7z"/>
<path class="st2" d="M591.9,231h-4.7c-1.1,0-2.1-0.5-2.1-1.3v-2.4c0-0.7,0.9-1.3,2.1-1.3h4.7c1.1,0,2.1,0.5,2.1,1.3v2.5
	C594,230.5,593.1,231,591.9,231z"/>
<path class="st2" d="M589,242.8h1.6v44.6H589V242.8z"/>
<path class="st2" d="M593.2,243.9h-6.8c-0.6,0-1-0.4-1-1s0.4-1,1-1h6.8c0.6,0,1,0.4,1,1C594.1,243.5,593.7,243.9,593.2,243.9z"/>
<path class="st4" d="M593.1,241.9h-6.7l-1-10.2h8.8L593.1,241.9z"/>
<path class="st2" d="M594.7,232.2h-10c-0.6,0-1-0.4-1-1c0-0.6,0.4-1,1-1h10c0.6,0,1,0.4,1,1C595.7,231.7,595.3,232.2,594.7,232.2z
	 M590.8,226.9h-2.1v-1c0-0.6,0.5-1.1,1-1.1c0.6,0,1,0.5,1,1.1V226.9z"/>
<path class="st5" d="M550.1,221.1c3.5-0.7,6,3.2,6.6,6.6c0.3,1.8,0.3,3.9,1.7,5.1c0.6,0.4,1.2,0.8,1.9,1.1c3.9,2.1,4.2,6,4.2,9.9
	c-0.1,0.7,0.1,1.3,0.3,1.9c0.3,0.7,1,1,1.5,1.6c0.3,0.4,0.4,0.9,0.5,1.5c1,4.5,0.5,8.6,0.4,13.1c-0.2,31.8-16.7,30.3-16.7,30.3H550
	c-4-0.2-7.6-2.8-10-6c-2.4-3.3-3.8-7.5-4.6-11.6c-0.6-3-0.9-6.1-1-9.1c-0.2-3.3-0.8-6.4,0.3-9.6c0.6-1.4,1.4-2.9,1.5-4.5
	c0-1.7-1-3.3-1-5.1c0-1,0.2-2.1,0.6-3c0.8-2.4,1.9-4.8,3-7c1-1.7,3.1-2.7,3.7-4.6c0.1-0.8,0.2-1.6,0.1-2.5c0.1-4.1,3.5-6.9,7-7.9
	L550.1,221.1L550.1,221.1z"/>
<path class="st6" d="M522.9,294.1h-42.8V337h42.8V294.1z"/>
<path class="st7" d="M458.7,287l21.4,7.1V337l-21.4-7.1V287z"/>
<path class="st8" d="M522.9,294.1l-21.4-7.1h-42.8l21.4,7.1H522.9z"/>
<path class="st9" d="M473.6,322.8v11.9l-6.4-2.1v-12L473.6,322.8z M473.6,292v11.9l-6.4-2.1v-12L473.6,292z"/>
<path class="st7" d="M510,289.9l0.8,0.3l1.4,0.5l4.5,1.4h-43.1l-6.4-2.1H510z"/>
<path class="st10" d="M496.5,296.9h-14.5v6.3h14.5V296.9z"/>
<path class="st11" d="M515,258.1h-33.9V292H515V258.1z"/>
<path class="st12" d="M464.2,252.4l16.9,5.7v33.8l-16.9-5.6V252.4z"/>
<path class="st13" d="M515,258.1l-16.9-5.7h-33.9l16.9,5.7H515z"/>
<path class="st14" d="M476,280.7v9.4l-5.1-1.7V279L476,280.7z M476,256.4v9.4l-5.1-1.7v-9.5L476,256.4z"/>
<path class="st12" d="M504.8,254.7l0.7,0.2l1,0.4l3.5,1.1H476l-5.1-1.7H504.8z"/>
<path class="st10" d="M494.1,260.2h-11.5v5h11.5V260.2z"/>
<path class="st15" d="M513,249.6c0.2,0,0.3-0.1,0.3-0.3v-3.8c0-0.2-0.1-0.3-0.3-0.4c-0.2,0-0.3,0.1-0.4,0.3v3.9
	C512.7,249.4,512.9,249.6,513,249.6L513,249.6z"/>
<path class="st15" d="M523.2,248.5l0-3.1l-3.5,0l0,3.1L523.2,248.5z"/>
<path class="st16" d="M516.9,228h8.8c0,5,4.2,13.4,11.4,17.3l-15.8,0l-15.8,0C512.9,241.4,516.9,233,516.9,228L516.9,228z"/>
<path class="st17" d="M517.8,253.9c2.6-2.1,1.2-3.3-0.9-3.2c-1,0-1.1-2.2,0-2.2h9.1c1,0,1.1,2.2,0,2.2c-2.1,0-3.6,1.2-0.9,3.3
	c2.7,2.1,4.8,4.2,4.8,7.2c0,3-1.6,5.6-5.1,5.7h-6.4c-3.6,0-5.2-2.6-5.2-5.6C513.1,258.1,515.2,256,517.8,253.9L517.8,253.9z"/>
<path class="st18" d="M513,252.2c-0.8,0-1.5-0.7-1.5-1.5c0-0.8,0.7-1.5,1.5-1.5s1.5,0.7,1.5,1.5C514.5,251.5,513.9,252.2,513,252.2z
	"/>
<path class="st15" d="M512.6,270.9h-0.3c-1.1,0-2.1-0.9-2.1-2.1c0-1.1,0.9-2.1,2.1-2.1l17,0c1.1,0,2.1,0.9,2.1,2.1
	c0,1.1-0.9,2.1-2.1,2.1h-0.3l6.8,67.9l-1.6,0.2l-1.1-11.1l-11.7,0v11h-1.6l0-11l-11.7,0l-1.2,11.1l-1.5-0.2L512.6,270.9z M508.5,324
	l11.3,0l0.1-34.1h-7.8L508.5,324L508.5,324z M512.3,288.4h7.6l0-17.4h-5.9L512.3,288.4L512.3,288.4z M521.4,326.4l11.5,0l-0.1-0.8
	l-11.5,0V326.4z M521.4,324l11.3,0l-3.4-34.1h-7.8L521.4,324z M521.5,288.4h7.6l-1.7-17.4h-5.9L521.5,288.4z M519.8,326.3v-0.8
	l-11.5,0l-0.1,0.8L519.8,326.3z"/>
<path class="st19" d="M541,330.3c-2.1-0.4-1.2-14.7,2-32s7.4-31,9.5-30.6c2.1,0.4,1.2,14.7-2,32C547.3,317,543.1,330.7,541,330.3z"
	/>
<path class="st19" d="M532.1,299.6c-2.9-17.3-3.6-31.6-1.5-32c2.1-0.4,6.2,13.4,9.1,30.7c2.9,17.3,3.6,31.6,1.5,32
	C539.1,330.7,535,316.9,532.1,299.6z"/>
<path class="st20" d="M542.3,324.8c-2.2,0-4.1-15.1-4.1-33.8s1.8-33.8,4.1-33.8c2.2,0,4.1,15.1,4.1,33.8S544.6,324.8,542.3,324.8z"
	/>
<path class="st20" d="M541,330.4c-1.8-0.7,1.2-13.2,6.7-28.1c5.5-14.8,11.4-26.3,13.2-25.7c1.8,0.7-1.2,13.2-6.7,28.1
	C548.7,319.6,542.8,331.1,541,330.4z"/>
<path class="st20" d="M528.3,304.6c-5.3-14.9-8.2-27.5-6.4-28.2c1.8-0.6,7.6,10.9,12.9,25.8s8.2,27.5,6.4,28.2
	C539.4,331,533.6,319.5,528.3,304.6z"/>
<path class="st21" d="M537.8,340.3l6.4,0c3.7,0,7-3.1,7.4-7.1l1.6-17c0.1-0.9-0.6-1.7-1.4-1.7h-0.1l-20.8-0.1
	c-0.9,0-1.6,0.7-1.6,1.6v0.1l1.4,17.1C530.8,337.2,534.1,340.3,537.8,340.3z"/>
<path class="st19" d="M562.1,317.4c-4.8-5.1-6.8-11-4.5-13.1c2.3-2.2,8.1,0.2,12.9,5.2c4.8,5.1,6.8,11,4.5,13.1
	C572.6,324.8,566.9,322.5,562.1,317.4z"/>
<path class="st19" d="M574.5,322.6c-2.3-2.2-0.2-8,4.7-13.1c4.8-5,10.6-7.3,12.9-5.1c2.3,2.2,0.2,8-4.7,13.1
	C582.6,322.5,576.8,324.8,574.5,322.6z"/>
<path class="st20" d="M574.8,322.7c-4,0-7.1-7.1-7.1-15.8c0-8.7,3.3-15.7,7.3-15.7c4,0,7.1,7.1,7.1,15.8
	C582,315.7,578.8,322.7,574.8,322.7z"/>
<path class="st17" d="M574.2,335c1.2,0,2.3-0.2,3.4-0.6c1.1-0.4,2.1-1,2.9-1.8c0.8-0.8,1.5-1.7,1.9-2.7c0.5-1,0.7-2.1,0.7-3.2v-1.4
	c0-0.7-0.3-1.4-0.8-1.9c-0.5-0.5-1.2-0.8-2-0.8l-12-0.1c-0.7,0-1.5,0.3-2,0.8c-0.5,0.5-0.8,1.2-0.8,1.9v1.4c0,1.1,0.2,2.2,0.6,3.3
	c0.4,1,1.1,2,1.9,2.8c0.8,0.8,1.8,1.4,2.9,1.9C571.9,334.7,573,335,574.2,335L574.2,335z"/>
<path class="st22" d="M93.4,311.3c0-5.7,1.7-11.3,4.9-16.1c3.2-4.8,7.7-8.5,13-10.6c5.3-2.2,11.1-2.8,16.7-1.6
	c5.6,1.1,10.8,3.9,14.8,7.9c4,4,6.8,9.2,7.9,14.8c1.1,5.6,0.5,11.4-1.6,16.7c-2.2,5.3-5.9,9.8-10.6,13c-4.8,3.2-10.3,4.9-16.1,4.9
	c-7.7,0-15-3.1-20.4-8.5C96.5,326.3,93.4,319,93.4,311.3L93.4,311.3z M251.8,311.7c0-5.7,1.7-11.2,4.8-15.9
	c3.1-4.7,7.6-8.4,12.9-10.5c5.2-2.2,11-2.7,16.5-1.6c5.6,1.1,10.7,3.8,14.7,7.8s6.7,9.1,7.8,14.7c1.1,5.6,0.5,11.3-1.6,16.5
	c-2.2,5.2-5.8,9.7-10.6,12.9c-4.7,3.1-10.2,4.8-15.9,4.8c-7.6,0-14.9-3-20.2-8.4C254.8,326.5,251.8,319.2,251.8,311.7L251.8,311.7z"
	/>
<path class="st23" d="M372,164H269v131h103V164z"/>
<path class="st24" d="M367.9,262.6h-31v31h31V262.6z"/>
<path class="st25" d="M321.5,257.4l15.5,5.2v30.9l-15.5-5.1V257.4z"/>
<path class="st26" d="M367.9,262.6l-15.4-5.2h-31l15.5,5.2H367.9L367.9,262.6z"/>
<path class="st14" d="M332.3,283.4v8.6l-4.6-1.5v-8.7L332.3,283.4z"/>
<path class="st27" d="M332.3,261v8.7l-4.6-1.5v-8.7L332.3,261z"/>
<path class="st28" d="M358.6,259.5l0.7,0.2l0.9,0.3l3.3,1h-31.2l-4.6-1.5H358.6L358.6,259.5z"/>
<path class="st29" d="M348.8,275.3h-18.3v18.3h18.3V275.3z"/>
<path class="st24" d="M321.4,272.3l9.2,3v18.2l-9.2-3V272.3z"/>
<path class="st30" d="M348.8,275.3l-9.1-3h-18.3l9.2,3H348.8z"/>
<path class="st28" d="M327.8,287.6v5.1l-2.8-0.8v-5.1L327.8,287.6L327.8,287.6z M327.8,274.4v5.1l-2.8-0.9v-5.1L327.8,274.4
	L327.8,274.4z"/>
<path class="st31" d="M343.3,273.5l0.3,0.1l0.6,0.3l1.9,0.6h-18.4l-2.8-0.9H343.3z"/>
<path class="st32" d="M326.2,235.4h-39.8v58.1h39.8V235.4z"/>
<path class="st33" d="M266.6,234.7l19.9,0.8v58.1l-19.9,0.1V234.7z"/>
<path class="st34" d="M280.4,277.1v16.4h-6v-19.2L280.4,277.1z"/>
<path class="st35" d="M275,293.6H14.5c-2.5,0-4.5,2.3-4.5,5.1v11c0,2.8,2,5.1,4.5,5.1H275V293.6z"/>
<path class="st36" d="M16.9,293.6h117.2v-96.7H75.2c-5.6,0-11.2,1.4-16.2,4.1c-5,2.7-9.2,6.6-12.4,11.3l-24,35.8
	c-3.8,5.8-5.9,12.6-5.9,19.5L16.9,293.6z"/>
<path class="st22" d="M107,254v-46.4H76.1c-3.9,0-7.8,1-11.3,2.8c-3.5,1.8-6.4,4.5-8.6,7.7L31.9,254L107,254z"/>
<path class="st37" d="M132.1,196.9h-11v96.7h11V196.9z"/>
<path class="st38" d="M94.1,261.7h10.4c0.6,0,1.2-0.2,1.7-0.7c0.4-0.4,0.7-1,0.7-1.7v-1.4H91.7v1.4c0,0.6,0.3,1.2,0.7,1.7
	C92.9,261.5,93.5,261.7,94.1,261.7L94.1,261.7z"/>
<path class="st39" d="M26,281.2c0-2.4-1-4.8-2.7-6.5c-1.7-1.7-4.1-2.7-6.5-2.7v18.4c2.4,0,4.8-1,6.5-2.7C25.1,286,26,283.7,26,281.2
	L26,281.2z"/>
<path class="st40" d="M371.8,293.6H275c-0.8,0-1.6,0.2-2.4,0.5c-0.8,0.3-1.4,0.8-2,1.3c-0.6,0.6-1,1.3-1.4,2
	c-0.3,0.8-0.5,1.6-0.5,2.4v8.5c0,1.6,0.6,3.2,1.8,4.4c1.2,1.2,2.7,1.8,4.4,1.8h96.9c1.6,0,3.2-0.6,4.4-1.8c1.2-1.2,1.8-2.7,1.8-4.4
	v-8.5c0-1.6-0.7-3.2-1.8-4.4C375.1,294.2,373.5,293.6,371.8,293.6z"/>
<path class="st41" d="M286.2,304.1c0-0.9-0.3-1.7-0.8-2.5c-0.5-0.7-1.2-1.3-2-1.6c-0.8-0.3-1.7-0.4-2.6-0.3s-1.7,0.6-2.3,1.2
	c-0.6,0.6-1,1.4-1.2,2.3c-0.2,0.9-0.1,1.8,0.3,2.6c0.3,0.8,0.9,1.5,1.6,2c0.7,0.5,1.6,0.8,2.5,0.8c0.6,0,1.2-0.1,1.7-0.3
	c0.5-0.2,1-0.5,1.4-1c0.4-0.4,0.7-0.9,1-1.4C286.1,305.3,286.2,304.7,286.2,304.1L286.2,304.1z"/>
<path class="st39" d="M293.9,304.1c0-0.6-0.2-1.1-0.6-1.5c-0.4-0.4-1-0.6-1.5-0.6h0c-0.6,0-1.1,0.2-1.6,0.6c-0.4,0.4-0.7,1-0.7,1.5
	c0,0.3,0.1,0.6,0.2,0.8s0.3,0.5,0.5,0.7c0.2,0.2,0.4,0.4,0.7,0.5c0.3,0.1,0.6,0.2,0.8,0.2h0.1c0.6,0,1.1-0.2,1.5-0.5
	c0.4-0.4,0.7-0.9,0.7-1.4V304.1z"/>
<path class="st41" d="M363.3,304.1c0,0.9,0.3,1.7,0.8,2.5c0.5,0.7,1.2,1.3,2,1.6c0.8,0.3,1.7,0.4,2.6,0.3s1.7-0.6,2.3-1.2
	c0.6-0.6,1-1.4,1.2-2.3c0.2-0.9,0.1-1.8-0.3-2.6c-0.3-0.8-0.9-1.5-1.6-2c-0.7-0.5-1.6-0.8-2.5-0.8c-1.2,0-2.3,0.5-3.1,1.3
	C363.8,301.8,363.3,302.9,363.3,304.1z"/>
<path class="st39" d="M355.6,304.1c0,0.4,0.1,0.9,0.4,1.2c0.2,0.4,0.6,0.6,1,0.8c0.4,0.2,0.8,0.2,1.3,0.1c0.4-0.1,0.8-0.3,1.1-0.6
	c0.3-0.3,0.5-0.7,0.6-1.1c0.1-0.4,0-0.9-0.1-1.3c-0.2-0.4-0.4-0.7-0.8-1c-0.4-0.2-0.8-0.4-1.2-0.4c-0.6,0-1.1,0.2-1.5,0.6
	c-0.4,0.4-0.7,0.9-0.7,1.5V304.1z"/>
<path class="st37" d="M372,164h-50.5h-25.3h-12.6h-6.3H275l-4,6h101V164z"/>
<path class="st42" d="M121,271l-49,17.2c0,0,4.8,3.6,6.4,5.8H121V271z"/>
<path class="st43" d="M72.5,288.3l48.7-15.6v-10.6l-57.2,22.7C67,285.5,69.9,286.7,72.5,288.3L72.5,288.3z"/>
<path class="st36" d="M275,164H132.2v129.5H275V164z"/>
<path class="st42" d="M275,267.4l-142.9,4v22.1H275V267.4z"/>
<path class="st22" d="M212,283.9c8.1,0,15.9,3.2,21.6,9c5.7,5.7,9,13.5,9,21.6h-61.2c0-4,0.8-8,2.3-11.7c1.5-3.7,3.8-7.1,6.6-9.9
	s6.2-5.1,9.9-6.6c3.7-1.5,7.7-2.3,11.7-2.3H212z"/>
<path class="st22" d="M216,288.7c6.6,0.1,12.9,2.8,17.6,7.5c4.7,4.7,7.4,10.9,7.6,17.6c0.2,6.6-2.2,13-6.6,18
	c-4.4,4.9-10.6,7.9-17.2,8.5h-8.6v-51.5L216,288.7L216,288.7z"/>
<path class="st40" d="M185.2,314.4c0-5.1,1.5-10.1,4.3-14.3c2.8-4.2,6.9-7.5,11.6-9.5c4.7-2,9.9-2.5,14.9-1.5c5,1,9.6,3.4,13.2,7.1
	c3.6,3.6,6.1,8.2,7.1,13.2c1,5,0.5,10.2-1.5,14.9c-2,4.7-5.3,8.7-9.5,11.6c-4.2,2.8-9.2,4.3-14.3,4.3c-6.8,0-13.4-2.7-18.2-7.5
	C187.9,327.8,185.2,321.3,185.2,314.4L185.2,314.4z"/>
<path class="st42" d="M210.8,327.1c-7,0-12.6-5.7-12.6-12.6c0-7,5.7-12.6,12.6-12.6s12.6,5.7,12.6,12.6
	C223.5,321.4,217.8,327.1,210.8,327.1z"/>
<path class="st43" d="M132.2,271.5l142.9-4v-13.2l-142.9,6.5L132.2,271.5L132.2,271.5z"/>
<path class="st22" d="M56.6,283.9c8.1,0,15.9,3.2,21.6,9c5.7,5.7,9,13.5,9,21.6H26c0-4,0.8-8,2.3-11.7c1.5-3.7,3.8-7.1,6.6-9.9
	c2.8-2.8,6.2-5.1,9.9-6.6c3.7-1.5,7.7-2.3,11.7-2.3H56.6z"/>
<path class="st22" d="M60.7,288.7c6.6,0.1,12.9,2.8,17.6,7.5c4.7,4.7,7.4,11,7.6,17.6c0.2,6.6-2.2,13-6.6,18
	c-4.4,4.9-10.6,7.9-17.2,8.5h-8.5v-51.5L60.7,288.7L60.7,288.7z"/>
<path class="st40" d="M29.7,314.4c0-5.1,1.5-10.1,4.3-14.3c2.8-4.2,6.9-7.5,11.6-9.5c4.7-2,9.9-2.5,14.9-1.5c5,1,9.6,3.4,13.2,7.1
	c3.6,3.6,6.1,8.2,7.1,13.2c1,5,0.5,10.2-1.5,14.9c-2,4.7-5.3,8.7-9.5,11.6c-4.2,2.8-9.2,4.3-14.3,4.3c-6.8,0-13.4-2.7-18.2-7.5
	C32.5,327.8,29.7,321.3,29.7,314.4L29.7,314.4z"/>
<path class="st42" d="M55.4,327.1c-7,0-12.6-5.7-12.6-12.6c0-7,5.7-12.6,12.6-12.6s12.6,5.7,12.6,12.6
	C68.1,321.4,62.4,327.1,55.4,327.1z"/>
<path class="st44" d="M404,253c0.3,0,0.7,0.6,1.2,1.7c0.2,0.5,0.5,1.2,0.8,2c0.3,0.8,0.6,1.6,1.1,2.5c0.4,0.9,0.9,1.8,1.5,2.7
	c0.3,0.4,0.6,0.9,1,1.3c0.3,0.4,0.7,0.8,1.1,1.2c0.4,0.4,0.8,0.7,1.3,1c0.4,0.3,0.9,0.5,1.4,0.7c0.5,0.2,0.9,0.3,1.4,0.4
	c0.1,0,0.2,0.1,0.4,0.1l0.4,0.1c0.2,0,0.5,0,0.7,0c1.1,0,2.1-0.2,3.1-0.5c0.5-0.2,1-0.3,1.6-0.5c0.3-0.1,0.5-0.2,0.7-0.3
	c0.2-0.1,0.5-0.2,0.7-0.3c0.5-0.2,0.9-0.5,1.4-0.7c0.4-0.3,0.9-0.5,1.3-0.8c0.8-0.6,1.6-1.1,2.4-1.7c0.7-0.5,1.4-1,2.2-1.4
	c0.6-0.4,1.2-0.8,1.9-1.1c0.5-0.2,1-0.4,1.5-0.5c0.4-0.1,0.8,0,1.2,0.2c0.3,0.2,0.6,0.6,0.6,1c0.1,0.6,0.1,1.1,0,1.7
	c-0.1,0.8-0.4,1.6-0.7,2.3c-0.4,1-0.9,1.9-1.5,2.7c-0.7,1.1-1.6,2.1-2.6,3c-0.5,0.5-1.1,1-1.7,1.5c-0.7,0.5-1.3,0.9-2.1,1.3
	c-0.4,0.2-0.7,0.4-1.1,0.6c-0.4,0.2-0.8,0.4-1.2,0.5c-0.9,0.3-1.7,0.6-2.6,0.8c-2,0.4-4,0.5-6,0.2c-0.5-0.1-1.1-0.2-1.6-0.4
	l-0.7-0.2c-0.3-0.1-0.5-0.2-0.7-0.3c-0.9-0.4-1.8-0.9-2.7-1.5c-0.8-0.6-1.5-1.2-2.2-1.9c-0.6-0.6-1.1-1.3-1.6-2.1
	c-0.4-0.7-0.8-1.4-1.2-2.2c-0.3-0.7-0.5-1.4-0.7-2.1c-0.3-1.2-0.6-2.5-0.7-3.7c-0.1-1-0.1-2-0.1-3c0-0.7,0.1-1.5,0.2-2.2
	C403.4,253.8,403.7,253.1,404,253L404,253z"/>
<path class="st4" d="M420.8,269.1c-0.4,6.2-0.4,12.3,0,18.5c5.9,1.9,12.1,2.4,18.3,1.5c0.4-6.3,0.8-12.5,0.8-18.8
	c0-3.3-0.1-6.6-1-9.8c-0.8-2.8-2.4-5.4-4.7-7.2c-0.3-0.2-0.5-0.4-0.8-0.5c-1.4,1.1-4.3,1.6-5.9,0.8c-0.9,0.6-1.6,1.3-2.3,2
	c-1.2,1.4-2.1,3.1-2.7,4.9C421.5,263.3,421,266.2,420.8,269.1L420.8,269.1z"/>
<path class="st45" d="M425.1,255.6c1.6,0.4,3.2,0.4,4.7,0c0.8-0.2,1.6-0.5,2.4-0.9c0.6-0.3,1.2-0.7,1.7-1.2l0-0.4V253l-0.1-0.5
	c-0.3-1.7-0.6-3.5-0.8-5.3c-0.2-1.6-0.5-3.2-0.7-4.9c-1.8,0.9-3.6,2-5.2,3.2c0,1.1-0.1,2.2-0.2,3.3c-0.1,0.9-0.2,1.8-0.3,2.8
	c-0.1,0.5-0.1,1-0.2,1.5c-0.1,0.5-0.2,1-0.3,1.5C425.8,254.9,425.4,255.2,425.1,255.6L425.1,255.6z"/>
<path class="st46" d="M426.6,251.6c1.9-1.7,4.1-3.2,6.4-4.3c-0.2-1.6-0.4-3.2-0.7-4.9c-1.8,0.9-3.6,2-5.2,3.2c0,1.1-0.1,2.2-0.2,3.3
	C426.9,249.8,426.8,250.7,426.6,251.6z"/>
<path class="st40" d="M460.7,342.4c0,0,0,4.3-3.9,4.2l-0.7,15.5l10.7-18.4L460.7,342.4z"/>
<path class="st4" d="M458.9,353.3c0-0.1-0.1-0.2-0.1-0.2c-0.1-0.1-0.2-0.1-0.2-0.1c-0.9,0.1-1.7,0.3-2.5,0.7c-0.1,0-0.1,0.1-0.2,0.2
	c0,0.1,0,0.2,0,0.3c0,0,0,0.1,0.1,0.1c0,0,0.1,0,0.1,0.1c0.1,0,0.2,0,0.3,0c0.7-0.3,1.5-0.5,2.3-0.6c0.1,0,0.1,0,0.2-0.1
	c0.1,0,0.1-0.1,0.1-0.1C458.9,353.5,458.9,353.4,458.9,353.3L458.9,353.3z M459,351.4c0,0,0-0.1,0-0.1c0,0,0-0.1-0.1-0.1
	c0,0-0.1,0-0.1-0.1c0,0-0.1,0-0.1,0c-0.9,0.1-1.7,0.3-2.5,0.7c0,0-0.1,0-0.1,0.1S456,352,456,352c0,0.1,0,0.2,0,0.3
	c0,0,0,0.1,0.1,0.1c0,0,0.1,0,0.1,0.1c0,0,0.1,0,0.1,0c0,0,0.1,0,0.1,0c0.7-0.3,1.5-0.5,2.3-0.6c0.1,0,0.1,0,0.2-0.1
	c0.1,0,0.1-0.1,0.1-0.1C459,351.5,459,351.5,459,351.4L459,351.4z M459.2,349.5c0,0,0-0.1,0-0.1c0,0,0-0.1-0.1-0.1
	c-0.1,0-0.1-0.1-0.2-0.1c-0.9,0.1-1.7,0.3-2.5,0.7c-0.1,0-0.1,0.1-0.2,0.2c0,0.1,0,0.2,0,0.3c0,0.1,0.1,0.1,0.2,0.2
	c0.1,0,0.2,0,0.3,0c0.7-0.3,1.5-0.5,2.3-0.6c0.1,0,0.1,0,0.2-0.1c0.1,0,0.1-0.1,0.1-0.1C459.2,349.6,459.2,349.5,459.2,349.5
	L459.2,349.5z M458,362.5c0,0.1-0.1,0.1-0.1,0.2c-0.1,0-0.1,0.1-0.2,0.1c-0.1,0-0.1,0-0.2,0c-0.1,0-0.1,0-0.2-0.1l-1.1-0.7
	l10.7-18.4l1.1,0.7c0.1,0,0.1,0.1,0.2,0.1c0,0.1,0.1,0.1,0.1,0.2c0,0.1,0,0.1,0,0.2c0,0.1,0,0.1-0.1,0.2L458,362.5z"/>
<path class="st40" d="M417.9,358.2c0,0-3.8,2-5.5-1.5l-14.1,6.6l21.3,0.9L417.9,358.2z"/>
<path class="st4" d="M407,361.7c0.1,0,0.1,0,0.2,0s0.1,0,0.2,0c0,0,0.1-0.1,0.1-0.1c0,0,0-0.1,0-0.1c0,0,0-0.1,0-0.1
	c0,0,0-0.1-0.1-0.1c-0.5-0.7-1.1-1.4-1.8-1.9c-0.1-0.1-0.2-0.1-0.3-0.1c-0.1,0-0.2,0.1-0.2,0.1c0,0,0,0.1,0,0.1c0,0,0,0.1,0,0.1
	c0,0,0,0.1,0,0.1c0,0,0.1,0.1,0.1,0.1c0.6,0.5,1.1,1.1,1.6,1.7C406.9,361.6,407,361.7,407,361.7L407,361.7z M408.8,360.9
	c0.1,0,0.1,0,0.2,0c0.1,0,0.1,0,0.2,0c0,0,0.1-0.1,0.1-0.1c0,0,0-0.1,0-0.1c0,0,0-0.1,0-0.1c0,0,0-0.1-0.1-0.1
	c-0.5-0.7-1.1-1.4-1.8-1.9c0,0-0.1,0-0.1-0.1c0,0-0.1,0-0.1,0c0,0-0.1,0-0.1,0c0,0-0.1,0.1-0.1,0.1c0,0.1-0.1,0.2,0,0.2
	c0,0.1,0.1,0.2,0.1,0.2c0.6,0.5,1.2,1.1,1.6,1.7C408.7,360.9,408.7,360.9,408.8,360.9L408.8,360.9z M410.6,360.1c0.1,0,0.1,0,0.2,0
	c0.1,0,0.1-0.1,0.2-0.1c0-0.1,0.1-0.1,0.1-0.2c0-0.1,0-0.1,0-0.2c-0.5-0.7-1.1-1.4-1.8-1.9c-0.1-0.1-0.2-0.1-0.3-0.1
	c-0.1,0-0.2,0.1-0.2,0.1c0,0,0,0.1,0,0.1c0,0,0,0.1,0,0.1c0,0.1,0.1,0.2,0.1,0.2c0.6,0.5,1.2,1.1,1.6,1.7
	C410.5,360,410.5,360.1,410.6,360.1L410.6,360.1z M398.7,365.1c-0.2-0.1-0.3-0.2-0.4-0.4c0-0.1,0-0.2,0-0.3l0-1.2l21.3,0.9l-0.1,1.2
	c0,0.1,0,0.2-0.1,0.3c0,0.1-0.1,0.2-0.2,0.2c-0.1,0.1-0.3,0.2-0.5,0.2l-19.9-0.9C398.9,365.1,398.8,365.1,398.7,365.1L398.7,365.1z"
	/>
<path class="st47" d="M439.5,292.6c0,0-4.9,28.9,24.4,49.5l-7.9,8.6c0,0-32.8-22.5-29.4-51.5L439.5,292.6z"/>
<path class="st48" d="M440.6,309.5c-0.5,0.6-0.9,1.2-1.3,1.8c-1.1,1.6-2.1,3.4-2.9,5.2c-1.4,3-2.6,6.1-3.5,9.3
	c-4.5-7.7-7.5-16.7-6.3-26.5l12.9-6.6C439.5,292.7,438.3,299.8,440.6,309.5L440.6,309.5z"/>
<path class="st49" d="M420.7,263.9c-1.3,10.2-1.4,20.5-0.5,30.8c0,0-16.1,31.6-12.6,63.3l12.3,3.1c0,0,2.8-41.7,19.5-62.8l0.7-20.9
	l-13.2-2.2l-1.2-11.2L420.7,263.9z"/>
<path class="st47" d="M439.3,279.8c0.1,0,0.2-0.1,0.4-0.4c0.1-0.2,0.2-0.3,0.2-0.5c0.1-0.2,0.2-0.5,0.2-0.7c0-0.1,0.1-0.3,0.1-0.4
	c0-0.1,0.1-0.3,0.1-0.5c0-0.2,0.1-0.4,0.1-0.5c0-0.2,0.1-0.4,0.1-0.6c0-0.2,0.1-0.4,0.1-0.6l0.1-0.7c0.1-0.5,0.1-1,0.1-1.4
	c0.1-1.1,0.1-2.3,0-3.4c-0.1-1.3-0.2-2.6-0.4-3.9c-0.2-1.4-0.5-2.8-0.9-4.2c-0.4-1.6-1-3.1-1.9-4.4c-0.5-0.7-1.1-1.4-1.7-2
	c-0.7-0.6-1.4-1-2.2-1.3c-0.4-0.2-0.8-0.3-1.3-0.3h-1.3c-0.8,0.1-1.6,0.3-2.3,0.6c-0.7,0.3-1.3,0.7-1.8,1.2
	c-0.1,0.1-0.3,0.2-0.4,0.4l-0.4,0.4l-0.3,0.4c-0.1,0.1-0.2,0.3-0.3,0.4c-0.4,0.5-0.7,1.1-0.9,1.6c-0.2,0.5-0.4,1.1-0.6,1.6
	c-0.3,0.9-0.4,1.9-0.5,2.8c-0.1,0.7-0.1,1.4-0.1,2.1c0,1.2,0.1,1.8,0.2,1.8c0.1,0,0.3-0.6,0.5-1.7c0.1-0.6,0.2-1.3,0.4-2
	c0.2-0.9,0.4-1.7,0.7-2.6c0.4-1,0.9-1.9,1.5-2.7c0.1-0.1,0.2-0.2,0.3-0.3l0.3-0.3l0.3-0.3c0.1-0.1,0.2-0.2,0.3-0.3
	c0.4-0.3,0.9-0.6,1.4-0.8c0.5-0.2,1.1-0.3,1.7-0.4h0.9c0.3,0,0.6,0.1,0.8,0.2c1.2,0.5,2.1,1.4,2.8,2.5c0.7,1.2,1.2,2.5,1.6,3.9
	c0.4,1.4,0.7,2.7,0.9,4c0.2,1.3,0.4,2.5,0.5,3.7c0.1,1.2,0.2,2.2,0.2,3.2v5.5c0,0.2,0,0.4,0,0.6
	C439.2,279.6,439.2,279.7,439.3,279.8L439.3,279.8z"/>
<path class="st6" d="M414.9,255.1h-24.5v24.5h24.5V255.1z"/>
<path class="st7" d="M378.1,251l12.3,4.1v24.5l-12.3-4.1V251z"/>
<path class="st8" d="M414.9,255.1l-12.3-4.1h-24.5l12.3,4.1H414.9z"/>
<path class="st10" d="M399.7,256.6h-8.3v3.6h8.3V256.6z"/>
<path class="st12" d="M400.5,275l0,4.7h4.2V275H400.5z M400.5,255.1l0,4.8h4.2v-4.8H400.5z M394.6,251h-3.9l9.9,4.1h4.2L394.6,251
	L394.6,251z"/>
<path class="st45" d="M436.8,264.4v0.2c0,2.6-0.6,5.2-1.8,7.6c-0.4,0.9-1,1.8-1.6,2.6c-0.6,0.9-1.4,1.7-2.2,2.4
	c-1.7,1.5-3.7,2.6-5.9,3.1c-1,0.2-2,0.4-3.1,0.4c-1,0-1.9,0-2.9-0.2c-0.9-0.1-1.7-0.3-2.6-0.6c-1.5-0.5-2.9-1.1-4.3-1.9
	c-1.1-0.6-2.1-1.4-3.1-2.2c-0.8-0.6-1.5-1.3-2.2-2.1l-0.2-0.2c-0.4,0-0.9,0-1.3,0c-0.4-0.1-0.9-0.2-1.3-0.3
	c-0.4-0.1-0.8-0.3-1.2-0.5c-0.4-0.2-0.7-0.5-1.1-0.8c-0.7-0.6-1.2-1.3-1.6-2.1c-0.2-0.4-0.4-0.8-0.5-1.3c-0.1-0.4-0.2-0.9-0.2-1.3
	c0-0.3,0-0.6,0-0.9c0-0.2,0.1-0.4,0.1-0.5c0.1-0.2,0.2-0.3,0.3-0.4c0.8-0.7,1.7,0,2.2,0.7c0.5,0.7,0.9,1.4,1.6,1.6
	c0.2,0.1,0.5,0.1,0.7,0c0.2,0,0.4-0.1,0.6-0.3c0.1,0,0.1-0.1,0.1-0.1c0.1-0.1,0.2-0.2,0.3-0.2c0.1-0.1,0.2-0.1,0.3-0.1
	c0.1,0,0.2,0,0.3,0c0.1,0,0.2,0.1,0.3,0.2c0.1,0.1,0.1,0.1,0.2,0.2c0.2,0.3,0.3,0.6,0.4,1c0.2,0.7,0.4,1.4,0.4,2.2
	c1.1,0.4,2.3,0.9,3.8,1.4c1,0.3,2,0.6,3.1,0.9c1.1,0.2,2.2,0.4,3.3,0.4c0.6,0,1.1,0,1.7-0.1c0.6-0.1,1.1-0.2,1.6-0.3
	c0.5-0.1,1-0.3,1.4-0.5c0.4-0.2,0.9-0.4,1.3-0.7c0.4-0.3,0.7-0.6,1-1c0.3-0.4,0.6-0.7,0.9-1.2c0.5-0.8,1-1.7,1.3-2.7
	c0.3-0.9,0.6-1.9,0.7-2.8c0.1-0.7,0.3-1.4,0.4-2.2c1.2,0.9,2.6,1.5,4,2C433.7,264.2,435.2,264.4,436.8,264.4L436.8,264.4z"/>
<path class="st49" d="M426.1,229.8c0.2-0.7,0.5-1.3,1-1.8c0.5-0.5,1-0.9,1.6-1.2c1.3-0.5,2.7-0.6,4-0.3c0.7,0.2,1.3,0.4,2,0.8
	c0.6,0.4,1.2,0.8,1.6,1.3c0.5,0.5,0.9,1.1,1.1,1.8c0.3,0.7,0.4,1.3,0.5,2c0.1,2.2-1.2,4.3-2.4,6.1C433.1,235,429.9,232,426.1,229.8z
	"/>
<path class="st48" d="M424.7,227.3c-0.6-0.4-1.3-0.6-2.1-0.6c-0.2,0.1-0.5,0.2-0.7,0.3c-0.2,0.1-0.4,0.3-0.5,0.5
	c-0.1,0.2-0.3,0.4-0.3,0.7c-0.1,0.2-0.1,0.5-0.1,0.8c0.1,0.5,0.2,1,0.5,1.5c0.2,0.5,0.6,0.9,1,1.2c0.3,0.3,0.6,0.5,0.9,0.8
	c0.3,0.2,0.7,0.4,1,0.6c0.7,0.4,1.5,0.6,2.3,0.8c0.4,0.1,0.8,0.1,1.2,0.1c0.8,0,1.6-0.1,2.4-0.3c0.4-0.1,0.8-0.2,1.1-0.4
	c0.4-0.2,1.4-0.5,1.6-0.9c0.3-0.6-0.4-0.7-0.9-1C429.7,230,427.2,228.6,424.7,227.3L424.7,227.3z"/>
<path class="st40" d="M425.3,235c0.2,0,0.3,0,0.5,0c0.2,0,0.3,0.1,0.5,0.2c0.1,0.1,0.2,0.3,0.2,0.5c0,0.2,0,0.4,0,0.5
	c-0.2,1.3-0.7,2.6-1.4,3.7c-0.3-0.3-0.5-0.7-0.6-1c-0.3-0.8-0.5-1.6-0.4-2.4c0-0.4,0.1-0.8,0.3-1.2C424.6,235.4,425,235.1,425.3,235
	L425.3,235z M431.5,240.8c-0.2-1.4-0.1-2.9,0.2-4.3c0.3-1.6,0.9-3.1,1.8-4.4c0.7,0.6,1.3,1.3,1.7,2.1c0.4,0.9,0.6,1.9,0.7,2.9
	c0,0.5,0,1,0,1.5c0,0.5-0.1,1-0.2,1.5c-0.1,0.5-0.3,0.9-0.4,1.4c-0.2,0.5-0.4,0.9-0.6,1.3c-0.2,0.4-0.5,0.8-0.8,1.2
	c-0.3,0.4-0.7,0.7-1,1.1C432,243.7,431.6,242.3,431.5,240.8L431.5,240.8z"/>
<path class="st45" d="M425.4,234.7c0.3,1.8-0.5,3.5-1.2,5.2c-0.7,1.7-1.3,3.5-0.7,5.2c0.2,0.4,0.5,0.8,0.8,1.1
	c0.3,0.3,0.7,0.6,1.1,0.8c0.4,0.2,0.8,0.4,1.3,0.5c0.5,0.1,0.9,0.1,1.4,0c0.9-0.2,1.8-0.5,2.5-1.1c0.7-0.6,1.4-1.3,1.8-2.1
	c0.4-0.8,0.7-1.7,0.9-2.6c0.2-0.9,0.2-1.9,0.1-2.8c-0.2-1.8-0.6-3.7-1.2-5.4C429.9,232.3,427.3,233.1,425.4,234.7L425.4,234.7z"/>
<path class="st45" d="M432.9,239.4c0.2-0.2,0.5-0.5,0.7-0.6c0.1-0.1,0.3-0.1,0.5-0.2c0.2,0,0.3,0,0.5,0c0.2,0.1,0.4,0.2,0.5,0.4
	c0.1,0.2,0.2,0.4,0.3,0.6c0.1,0.2,0.1,0.4,0.1,0.6c0,0.2,0,0.4-0.1,0.6c-0.1,0.2-0.1,0.4-0.3,0.6c-0.1,0.2-0.3,0.3-0.4,0.5
	c-0.2,0.1-0.3,0.2-0.5,0.3c-0.2,0.1-0.4,0.1-0.6,0.1c-0.2,0-0.4,0-0.6,0c-0.2,0-0.4-0.1-0.6-0.2
	C432.6,241.2,432.8,240.3,432.9,239.4L432.9,239.4z"/>
<path class="st40" d="M424.1,236.1c2.6,0.1,5.2-0.6,7.5-1.9c-0.2,0.8-0.2,1.6,0,2.4c0.2,0.6,0.4,1.1,0.7,1.6
	c0.3,0.5,0.7,0.9,1.2,1.3c1.1-1.5,1.5-3.3,1.3-5.2c0-0.2-0.1-0.4-0.1-0.6c-0.4-0.5-0.8-1-1.2-1.4c-0.7-0.7-1.5-1.2-2.4-1.5
	c-0.6-0.2-1.2-0.4-1.8-0.5c-1.3-0.2-2.5,0-3.8,0.4c-0.6,0.2-1.2,0.5-1.7,0.8c-0.2,0.2-0.4,0.3-0.5,0.5c-0.4,0.4-0.7,1-1,1.5
	c0,0.1-0.1,0.3-0.1,0.4c0,0.1,0,0.3,0,0.4c0,0.1,0,0.3,0.1,0.4c0,0.1,0.1,0.3,0.1,0.4c0.1,0.1,0.1,0.2,0.2,0.3
	c0.1,0.1,0.2,0.2,0.3,0.3c0.1,0.1,0.2,0.2,0.3,0.2c0.1,0.1,0.2,0.1,0.4,0.2C423.6,236.1,423.8,236.1,424.1,236.1L424.1,236.1z"/>
</svg>
